<svg width="257" height="255" viewBox="0 0 257 255" fill="none" xmlns="http://www.w3.org/2000/svg">
<g filter="url(#filter0_dd_589_442)">
<g clip-path="url(#clip0_589_442)">
<rect x="27.9453" y="53.9167" width="201.531" height="152.788" rx="4" fill="white"/>
<rect x="47.9043" y="61.9854" width="38.8722" height="121.045" rx="19.4361" fill="#82B2C2"/>
<rect x="109.273" y="61.9854" width="38.8722" height="121.045" rx="19.4361" fill="#82B2C2"/>
<rect x="170.641" y="61.9854" width="38.8722" height="121.045" rx="19.4361" fill="#82B2C2"/>
<g filter="url(#filter1_d_589_442)">
<path d="M58.2253 189.993H59.515L61.2423 194.209H61.3105L63.0378 189.993H64.3275V195.811H63.3162V191.814H63.2622L61.6542 195.794H60.8986L59.2906 191.805H59.2366V195.811H58.2253V189.993ZM70.6741 192.902C70.6741 193.529 70.5567 194.066 70.3219 194.513C70.0889 194.958 69.7707 195.299 69.3673 195.535C68.9658 195.772 68.5103 195.891 68.0008 195.891C67.4914 195.891 67.0349 195.772 66.6315 195.535C66.23 195.297 65.9118 194.955 65.677 194.51C65.444 194.063 65.3275 193.527 65.3275 192.902C65.3275 192.275 65.444 191.739 65.677 191.294C65.9118 190.847 66.23 190.505 66.6315 190.268C67.0349 190.032 67.4914 189.913 68.0008 189.913C68.5103 189.913 68.9658 190.032 69.3673 190.268C69.7707 190.505 70.0889 190.847 70.3219 191.294C70.5567 191.739 70.6741 192.275 70.6741 192.902ZM69.6145 192.902C69.6145 192.461 69.5453 192.088 69.4071 191.785C69.2707 191.481 69.0813 191.25 68.8389 191.095C68.5965 190.938 68.3171 190.859 68.0008 190.859C67.6846 190.859 67.4052 190.938 67.1628 191.095C66.9203 191.25 66.73 191.481 66.5917 191.785C66.4554 192.088 66.3872 192.461 66.3872 192.902C66.3872 193.343 66.4554 193.716 66.5917 194.021C66.73 194.324 66.9203 194.554 67.1628 194.712C67.4052 194.867 67.6846 194.945 68.0008 194.945C68.3171 194.945 68.5965 194.867 68.8389 194.712C69.0813 194.554 69.2707 194.324 69.4071 194.021C69.5453 193.716 69.6145 193.343 69.6145 192.902ZM76.4518 189.993V195.811H75.5143L72.7729 191.848H72.7246V195.811H71.6706V189.993H72.6138L75.3524 193.959H75.4035V189.993H76.4518Z" fill="black"/>
</g>
<g filter="url(#filter2_d_589_442)">
<path d="M121.023 191.122V190.239H125.665V191.122H123.867V196.057H122.821V191.122H121.023ZM130.227 190.239H131.281V194.04C131.281 194.457 131.183 194.823 130.986 195.139C130.791 195.456 130.516 195.703 130.162 195.881C129.808 196.057 129.394 196.145 128.921 196.145C128.445 196.145 128.03 196.057 127.676 195.881C127.322 195.703 127.047 195.456 126.852 195.139C126.657 194.823 126.56 194.457 126.56 194.04V190.239H127.614V193.952C127.614 194.194 127.667 194.41 127.773 194.599C127.881 194.789 128.032 194.938 128.227 195.046C128.422 195.152 128.654 195.205 128.921 195.205C129.188 195.205 129.419 195.152 129.614 195.046C129.811 194.938 129.962 194.789 130.068 194.599C130.174 194.41 130.227 194.194 130.227 193.952V190.239ZM132.427 196.057V190.239H136.211V191.122H133.481V192.702H136.015V193.585H133.481V195.173H136.234V196.057H132.427Z" fill="black"/>
</g>
<g filter="url(#filter3_d_589_442)">
<path d="M182.52 195.811L180.878 189.993H182.012L183.06 194.268H183.114L184.233 189.993H185.264L186.387 194.271H186.438L187.486 189.993H188.62L186.978 195.811H185.938L184.773 191.729H184.728L183.56 195.811H182.52ZM189.35 195.811V189.993H193.134V190.876H190.404V192.456H192.938V193.339H190.404V194.928H193.157V195.811H189.35ZM196.181 195.811H194.21V189.993H196.221C196.799 189.993 197.295 190.109 197.71 190.342C198.126 190.573 198.447 190.906 198.67 191.339C198.893 191.773 199.005 192.292 199.005 192.896C199.005 193.502 198.893 194.023 198.667 194.459C198.444 194.894 198.121 195.229 197.698 195.462C197.278 195.695 196.772 195.811 196.181 195.811ZM195.264 194.899H196.13C196.536 194.899 196.874 194.825 197.144 194.678C197.415 194.528 197.619 194.305 197.755 194.01C197.892 193.713 197.96 193.341 197.96 192.896C197.96 192.451 197.892 192.082 197.755 191.788C197.619 191.493 197.417 191.272 197.15 191.126C196.885 190.979 196.555 190.905 196.161 190.905H195.264V194.899Z" fill="black"/>
</g>
<g filter="url(#filter4_d_589_442)">
<rect x="51.3477" y="66.9058" width="31.9835" height="112.188" rx="15.9917" fill="#076787"/>
</g>
<g filter="url(#filter5_d_589_442)">
<rect x="112.363" y="66.9058" width="31.9835" height="112.188" rx="15.9917" fill="#076787"/>
</g>
<g filter="url(#filter6_d_589_442)">
<rect x="173.869" y="66.9058" width="31.9835" height="112.188" rx="15.9917" fill="#076787"/>
</g>
<g filter="url(#filter7_d_589_442)">
<rect x="178.791" y="106.27" width="22.1424" height="67.9033" rx="11.0712" fill="white"/>
</g>
<g filter="url(#filter8_d_589_442)">
<rect x="117.281" y="113.159" width="22.1424" height="61.0146" rx="11.0712" fill="white"/>
</g>
<g filter="url(#filter9_d_589_442)">
<rect x="56.2676" y="128.413" width="22.1424" height="45.7609" rx="11.0712" fill="white"/>
</g>
<g filter="url(#filter10_d_589_442)">
<path d="M59.1761 121.081V120.256L61.6056 116.417H62.2933V117.592H61.874L60.2384 120.183V120.228H63.6297V121.081H59.1761ZM61.9075 122.143V120.829L61.9187 120.46V116.417H62.8972V122.143H61.9075ZM66.6393 122.252C66.179 122.252 65.7838 122.136 65.4539 121.903C65.1259 121.668 64.8733 121.33 64.6963 120.888C64.5211 120.444 64.4335 119.91 64.4335 119.286C64.4353 118.661 64.5239 118.13 64.6991 117.692C64.8761 117.252 65.1287 116.917 65.4567 116.686C65.7866 116.455 66.1808 116.339 66.6393 116.339C67.0978 116.339 67.492 116.455 67.8219 116.686C68.1518 116.917 68.4044 117.252 68.5796 117.692C68.7566 118.132 68.8452 118.663 68.8452 119.286C68.8452 119.912 68.7566 120.447 68.5796 120.891C68.4044 121.332 68.1518 121.67 67.8219 121.903C67.4939 122.136 67.0997 122.252 66.6393 122.252ZM66.6393 121.377C66.9972 121.377 67.2796 121.201 67.4864 120.849C67.6952 120.495 67.7996 119.974 67.7996 119.286C67.7996 118.831 67.752 118.449 67.657 118.14C67.5619 117.83 67.4277 117.597 67.2544 117.441C67.0811 117.282 66.876 117.203 66.6393 117.203C66.2833 117.203 66.0019 117.38 65.795 117.734C65.5881 118.086 65.4837 118.604 65.4819 119.286C65.48 119.742 65.5257 120.126 65.6189 120.438C65.7139 120.749 65.8481 120.984 66.0215 121.142C66.1948 121.299 66.4008 121.377 66.6393 121.377ZM72.8354 121.069V120.768C72.8354 120.546 72.882 120.342 72.9752 120.155C73.0703 119.969 73.2082 119.819 73.389 119.705C73.5698 119.591 73.7888 119.535 74.046 119.535C74.3106 119.535 74.5324 119.591 74.7114 119.705C74.8903 119.817 75.0254 119.966 75.1168 120.152C75.2099 120.339 75.2565 120.544 75.2565 120.768V121.069C75.2565 121.291 75.2099 121.495 75.1168 121.682C75.0236 121.868 74.8866 122.018 74.7058 122.132C74.5269 122.246 74.3069 122.302 74.046 122.302C73.785 122.302 73.5642 122.246 73.3834 122.132C73.2026 122.018 73.0656 121.868 72.9724 121.682C72.8811 121.495 72.8354 121.291 72.8354 121.069ZM73.5651 120.768V121.069C73.5651 121.217 73.6005 121.352 73.6713 121.475C73.7422 121.598 73.8671 121.659 74.046 121.659C74.2268 121.659 74.3507 121.599 74.4178 121.478C74.4868 121.355 74.5213 121.219 74.5213 121.069V120.768C74.5213 120.618 74.4886 120.482 74.4234 120.359C74.3582 120.234 74.2324 120.172 74.046 120.172C73.8708 120.172 73.7468 120.234 73.6741 120.359C73.6015 120.482 73.5651 120.618 73.5651 120.768ZM69.925 117.793V117.491C69.925 117.267 69.9726 117.062 70.0676 116.876C70.1627 116.689 70.3006 116.54 70.4814 116.429C70.6622 116.315 70.8812 116.258 71.1384 116.258C71.4012 116.258 71.6221 116.315 71.801 116.429C71.9818 116.54 72.1178 116.689 72.2092 116.876C72.3005 117.062 72.3462 117.267 72.3462 117.491V117.793C72.3462 118.017 72.2996 118.222 72.2064 118.408C72.115 118.592 71.979 118.741 71.7982 118.852C71.6174 118.964 71.3975 119.02 71.1384 119.02C70.8756 119.02 70.6538 118.964 70.473 118.852C70.2941 118.741 70.158 118.592 70.0648 118.405C69.9716 118.219 69.925 118.015 69.925 117.793ZM70.6603 117.491V117.793C70.6603 117.942 70.6948 118.078 70.7638 118.201C70.8346 118.322 70.9595 118.383 71.1384 118.383C71.3173 118.383 71.4403 118.322 71.5074 118.201C71.5764 118.078 71.6109 117.942 71.6109 117.793V117.491C71.6109 117.342 71.5783 117.206 71.513 117.083C71.4478 116.958 71.3229 116.895 71.1384 116.895C70.9613 116.895 70.8374 116.958 70.7666 117.083C70.6957 117.208 70.6603 117.344 70.6603 117.491ZM70.2438 122.143L74.1802 116.417H74.8791L70.9427 122.143H70.2438Z" fill="white"/>
</g>
<g filter="url(#filter11_d_589_442)">
<path d="M122.461 104.016C122.187 104.014 121.92 103.966 121.659 103.873C121.398 103.778 121.163 103.624 120.954 103.412C120.745 103.197 120.58 102.913 120.457 102.559C120.334 102.203 120.273 101.762 120.275 101.237C120.275 100.746 120.327 100.309 120.431 99.9253C120.536 99.5414 120.686 99.2171 120.882 98.9524C121.077 98.6859 121.313 98.4827 121.589 98.3429C121.867 98.2032 122.177 98.1333 122.52 98.1333C122.88 98.1333 123.198 98.2041 123.476 98.3457C123.756 98.4874 123.981 98.6812 124.153 98.9273C124.324 99.1714 124.43 99.4473 124.471 99.7548H123.451C123.399 99.5349 123.291 99.3597 123.129 99.2292C122.969 99.0969 122.766 99.0307 122.52 99.0307C122.123 99.0307 121.817 99.2031 121.603 99.5479C121.39 99.8927 121.283 100.366 121.281 100.968H121.32C121.412 100.804 121.53 100.663 121.676 100.546C121.821 100.429 121.985 100.338 122.168 100.275C122.352 100.21 122.547 100.177 122.752 100.177C123.087 100.177 123.388 100.257 123.655 100.417C123.923 100.578 124.136 100.799 124.292 101.08C124.449 101.36 124.526 101.68 124.524 102.042C124.526 102.418 124.441 102.757 124.267 103.057C124.094 103.355 123.852 103.59 123.543 103.761C123.234 103.933 122.873 104.017 122.461 104.016ZM122.456 103.177C122.659 103.177 122.84 103.127 123.001 103.029C123.161 102.93 123.288 102.797 123.381 102.629C123.474 102.461 123.52 102.273 123.518 102.064C123.52 101.859 123.475 101.674 123.384 101.508C123.294 101.342 123.17 101.21 123.012 101.114C122.853 101.017 122.673 100.968 122.47 100.968C122.319 100.968 122.178 100.997 122.047 101.055C121.917 101.113 121.803 101.193 121.706 101.295C121.609 101.396 121.533 101.513 121.477 101.648C121.423 101.78 121.395 101.922 121.393 102.072C121.395 102.272 121.442 102.456 121.533 102.623C121.624 102.791 121.75 102.925 121.91 103.026C122.071 103.126 122.252 103.177 122.456 103.177ZM127.586 104.046C127.125 104.046 126.73 103.93 126.4 103.697C126.072 103.462 125.82 103.124 125.643 102.682C125.468 102.238 125.38 101.704 125.38 101.08C125.382 100.456 125.47 99.9244 125.645 99.4864C125.823 99.0465 126.075 98.7111 126.403 98.4799C126.733 98.2488 127.127 98.1333 127.586 98.1333C128.044 98.1333 128.438 98.2488 128.768 98.4799C129.098 98.7111 129.351 99.0465 129.526 99.4864C129.703 99.9263 129.792 100.457 129.792 101.08C129.792 101.706 129.703 102.241 129.526 102.685C129.351 103.126 129.098 103.464 128.768 103.697C128.44 103.93 128.046 104.046 127.586 104.046ZM127.586 103.171C127.944 103.171 128.226 102.995 128.433 102.643C128.642 102.289 128.746 101.768 128.746 101.08C128.746 100.625 128.698 100.243 128.603 99.9337C128.508 99.6243 128.374 99.3914 128.201 99.2348C128.027 99.0764 127.822 98.9972 127.586 98.9972C127.23 98.9972 126.948 99.1742 126.741 99.5283C126.535 99.8806 126.43 100.398 126.428 101.08C126.426 101.537 126.472 101.921 126.565 102.232C126.66 102.543 126.795 102.778 126.968 102.936C127.141 103.093 127.347 103.171 127.586 103.171ZM133.782 102.864V102.562C133.782 102.34 133.828 102.136 133.922 101.949C134.017 101.763 134.155 101.613 134.335 101.499C134.516 101.386 134.735 101.329 134.992 101.329C135.257 101.329 135.479 101.386 135.658 101.499C135.837 101.611 135.972 101.76 136.063 101.947C136.156 102.133 136.203 102.338 136.203 102.562V102.864C136.203 103.085 136.156 103.29 136.063 103.476C135.97 103.662 135.833 103.812 135.652 103.926C135.473 104.04 135.253 104.097 134.992 104.097C134.731 104.097 134.511 104.04 134.33 103.926C134.149 103.812 134.012 103.662 133.919 103.476C133.828 103.29 133.782 103.085 133.782 102.864ZM134.512 102.562V102.864C134.512 103.011 134.547 103.146 134.618 103.269C134.689 103.392 134.813 103.454 134.992 103.454C135.173 103.454 135.297 103.393 135.364 103.272C135.433 103.149 135.468 103.013 135.468 102.864V102.562C135.468 102.413 135.435 102.277 135.37 102.154C135.305 102.029 135.179 101.966 134.992 101.966C134.817 101.966 134.693 102.029 134.621 102.154C134.548 102.277 134.512 102.413 134.512 102.562ZM130.871 99.5871V99.2851C130.871 99.0615 130.919 98.8564 131.014 98.6701C131.109 98.4837 131.247 98.3346 131.428 98.2227C131.609 98.109 131.828 98.0522 132.085 98.0522C132.348 98.0522 132.568 98.109 132.747 98.2227C132.928 98.3346 133.064 98.4837 133.156 98.6701C133.247 98.8564 133.293 99.0615 133.293 99.2851V99.5871C133.293 99.8107 133.246 100.016 133.153 100.202C133.061 100.387 132.925 100.535 132.745 100.647C132.564 100.758 132.344 100.814 132.085 100.814C131.822 100.814 131.6 100.758 131.419 100.647C131.241 100.535 131.104 100.386 131.011 100.199C130.918 100.013 130.871 99.8089 130.871 99.5871ZM131.607 99.2851V99.5871C131.607 99.7362 131.641 99.8722 131.71 99.9952C131.781 100.116 131.906 100.177 132.085 100.177C132.264 100.177 132.387 100.116 132.454 99.9952C132.523 99.8722 132.557 99.7362 132.557 99.5871V99.2851C132.557 99.136 132.525 99 132.459 98.8769C132.394 98.7521 132.269 98.6896 132.085 98.6896C131.908 98.6896 131.784 98.7521 131.713 98.8769C131.642 99.0018 131.607 99.1379 131.607 99.2851ZM131.19 103.937L135.127 98.2115H135.826L131.889 103.937H131.19Z" fill="white"/>
</g>
<g filter="url(#filter12_d_589_442)">
<path d="M185.036 101.063C184.762 101.061 184.494 101.014 184.234 100.921C183.973 100.826 183.738 100.672 183.529 100.459C183.32 100.245 183.154 99.9607 183.031 99.6066C182.908 99.2506 182.848 98.8098 182.85 98.2842C182.85 97.794 182.902 97.3569 183.006 96.973C183.111 96.589 183.261 96.2647 183.456 96C183.652 95.7335 183.888 95.5303 184.164 95.3906C184.441 95.2508 184.752 95.1809 185.095 95.1809C185.454 95.1809 185.773 95.2517 186.051 95.3934C186.33 95.535 186.556 95.7288 186.727 95.9749C186.899 96.219 187.005 96.4949 187.046 96.8024H186.026C185.973 96.5825 185.866 96.4073 185.704 96.2768C185.544 96.1445 185.341 96.0783 185.095 96.0783C184.698 96.0783 184.392 96.2507 184.178 96.5955C183.965 96.9403 183.858 97.4138 183.856 98.0158H183.895C183.987 97.8518 184.105 97.711 184.25 97.5936C184.396 97.4762 184.56 97.3858 184.742 97.3224C184.927 97.2572 185.122 97.2246 185.327 97.2246C185.662 97.2246 185.963 97.3047 186.23 97.465C186.498 97.6253 186.711 97.8462 186.867 98.1276C187.024 98.4072 187.101 98.7278 187.099 99.0893C187.101 99.4658 187.015 99.8041 186.842 100.104C186.669 100.402 186.427 100.637 186.118 100.809C185.808 100.98 185.448 101.065 185.036 101.063ZM185.03 100.224C185.234 100.224 185.415 100.175 185.576 100.076C185.736 99.9775 185.863 99.8442 185.956 99.6764C186.049 99.5087 186.095 99.3205 186.093 99.1117C186.095 98.9067 186.05 98.7212 185.959 98.5554C185.869 98.3895 185.745 98.2581 185.587 98.1611C185.428 98.0642 185.247 98.0158 185.044 98.0158C184.893 98.0158 184.753 98.0447 184.622 98.1024C184.492 98.1602 184.378 98.2404 184.281 98.3429C184.184 98.4435 184.108 98.5609 184.052 98.6951C183.998 98.8275 183.97 98.9691 183.968 99.1201C183.97 99.3195 184.016 99.5031 184.108 99.6709C184.199 99.8386 184.325 99.9728 184.485 100.073C184.645 100.174 184.827 100.224 185.03 100.224ZM190.079 101.063C189.664 101.063 189.295 100.993 188.972 100.853C188.652 100.714 188.4 100.523 188.218 100.28C188.037 100.036 187.947 99.7594 187.949 99.45C187.947 99.2096 187.999 98.9887 188.106 98.7874C188.212 98.5861 188.355 98.4184 188.536 98.2842C188.719 98.1481 188.922 98.0614 189.146 98.0242V97.985C188.851 97.9198 188.613 97.7697 188.43 97.5349C188.249 97.2982 188.16 97.0251 188.162 96.7157C188.16 96.4213 188.242 96.1585 188.408 95.9273C188.574 95.6962 188.801 95.5145 189.09 95.3822C189.379 95.248 189.709 95.1809 190.079 95.1809C190.447 95.1809 190.774 95.248 191.061 95.3822C191.35 95.5145 191.577 95.6962 191.743 95.9273C191.911 96.1585 191.995 96.4213 191.995 96.7157C191.995 97.0251 191.902 97.2982 191.718 97.5349C191.535 97.7697 191.299 97.9198 191.01 97.985V98.0242C191.234 98.0614 191.435 98.1481 191.614 98.2842C191.795 98.4184 191.939 98.5861 192.045 98.7874C192.153 98.9887 192.207 99.2096 192.207 99.45C192.207 99.7594 192.116 100.036 191.933 100.28C191.75 100.523 191.499 100.714 191.178 100.853C190.859 100.993 190.493 101.063 190.079 101.063ZM190.079 100.264C190.294 100.264 190.48 100.227 190.639 100.155C190.797 100.08 190.92 99.9756 191.008 99.8414C191.095 99.7072 191.14 99.5525 191.142 99.3773C191.14 99.1946 191.092 99.0334 190.999 98.8936C190.908 98.752 190.782 98.6411 190.622 98.5609C190.463 98.4808 190.283 98.4407 190.079 98.4407C189.874 98.4407 189.692 98.4808 189.532 98.5609C189.371 98.6411 189.244 98.752 189.151 98.8936C189.06 99.0334 189.015 99.1946 189.017 99.3773C189.015 99.5525 189.058 99.7072 189.146 99.8414C189.233 99.9737 189.356 100.077 189.515 100.152C189.675 100.226 189.863 100.264 190.079 100.264ZM190.079 97.6551C190.255 97.6551 190.409 97.6197 190.544 97.5489C190.68 97.4781 190.787 97.3793 190.865 97.2525C190.943 97.1258 190.983 96.9795 190.985 96.8136C190.983 96.6496 190.944 96.5061 190.868 96.383C190.791 96.2582 190.685 96.1622 190.549 96.0951C190.413 96.0261 190.257 95.9916 190.079 95.9916C189.899 95.9916 189.739 96.0261 189.601 96.0951C189.465 96.1622 189.359 96.2582 189.283 96.383C189.208 96.5061 189.172 96.6496 189.174 96.8136C189.172 96.9795 189.209 97.1258 189.285 97.2525C189.364 97.3774 189.471 97.4762 189.607 97.5489C189.745 97.6197 189.902 97.6551 190.079 97.6551ZM196.188 99.9113V99.6094C196.188 99.3876 196.234 99.1835 196.327 98.9971C196.422 98.8107 196.56 98.6607 196.741 98.547C196.922 98.4333 197.141 98.3764 197.398 98.3764C197.663 98.3764 197.885 98.4333 198.063 98.547C198.242 98.6588 198.378 98.8079 198.469 98.9943C198.562 99.1807 198.609 99.3857 198.609 99.6094V99.9113C198.609 100.133 198.562 100.337 198.469 100.524C198.376 100.71 198.239 100.86 198.058 100.974C197.879 101.087 197.659 101.144 197.398 101.144C197.137 101.144 196.916 101.087 196.735 100.974C196.555 100.86 196.418 100.71 196.325 100.524C196.233 100.337 196.188 100.133 196.188 99.9113ZM196.917 99.6094V99.9113C196.917 100.059 196.953 100.194 197.023 100.317C197.094 100.44 197.219 100.501 197.398 100.501C197.579 100.501 197.703 100.441 197.77 100.319C197.839 100.196 197.873 100.06 197.873 99.9113V99.6094C197.873 99.4602 197.841 99.3242 197.776 99.2012C197.71 99.0763 197.584 99.0139 197.398 99.0139C197.223 99.0139 197.099 99.0763 197.026 99.2012C196.954 99.3242 196.917 99.4602 196.917 99.6094ZM193.277 96.6347V96.3327C193.277 96.1091 193.325 95.904 193.42 95.7177C193.515 95.5313 193.653 95.3822 193.833 95.2703C194.014 95.1566 194.233 95.0998 194.49 95.0998C194.753 95.0998 194.974 95.1566 195.153 95.2703C195.334 95.3822 195.47 95.5313 195.561 95.7177C195.653 95.904 195.698 96.1091 195.698 96.3327V96.6347C195.698 96.8583 195.652 97.0633 195.558 97.2497C195.467 97.4343 195.331 97.5824 195.15 97.6943C194.969 97.8061 194.75 97.862 194.49 97.862C194.228 97.862 194.006 97.8061 193.825 97.6943C193.646 97.5824 193.51 97.4333 193.417 97.2469C193.324 97.0606 193.277 96.8565 193.277 96.6347ZM194.012 96.3327V96.6347C194.012 96.7838 194.047 96.9198 194.116 97.0428C194.187 97.164 194.312 97.2246 194.49 97.2246C194.669 97.2246 194.792 97.164 194.86 97.0428C194.928 96.9198 194.963 96.7838 194.963 96.6347V96.3327C194.963 96.1836 194.93 96.0476 194.865 95.9245C194.8 95.7997 194.675 95.7372 194.49 95.7372C194.313 95.7372 194.189 95.7997 194.119 95.9245C194.048 96.0494 194.012 96.1855 194.012 96.3327ZM193.596 100.985L197.532 95.2592H198.231L194.295 100.985H193.596Z" fill="white"/>
</g>
</g>
</g>
<defs>
<filter id="filter0_dd_589_442" x="0.945312" y="0.916748" width="255.53" height="258.788" filterUnits="userSpaceOnUse" color-interpolation-filters="sRGB">
<feFlood flood-opacity="0" result="BackgroundImageFix"/>
<feColorMatrix in="SourceAlpha" type="matrix" values="0 0 0 0 0 0 0 0 0 0 0 0 0 0 0 0 0 0 127 0" result="hardAlpha"/>
<feOffset dy="26"/>
<feGaussianBlur stdDeviation="13.5"/>
<feComposite in2="hardAlpha" operator="out"/>
<feColorMatrix type="matrix" values="0 0 0 0 0 0 0 0 0 0 0 0 0 0 0 0 0 0 0.04 0"/>
<feBlend mode="normal" in2="BackgroundImageFix" result="effect1_dropShadow_589_442"/>
<feColorMatrix in="SourceAlpha" type="matrix" values="0 0 0 0 0 0 0 0 0 0 0 0 0 0 0 0 0 0 127 0" result="hardAlpha"/>
<feOffset dy="-26"/>
<feGaussianBlur stdDeviation="13.5"/>
<feComposite in2="hardAlpha" operator="out"/>
<feColorMatrix type="matrix" values="0 0 0 0 0 0 0 0 0 0 0 0 0 0 0 0 0 0 0.1 0"/>
<feBlend mode="normal" in2="effect1_dropShadow_589_442" result="effect2_dropShadow_589_442"/>
<feBlend mode="normal" in="SourceGraphic" in2="effect2_dropShadow_589_442" result="shape"/>
</filter>
<filter id="filter1_d_589_442" x="48.3845" y="182.04" width="37.9087" height="25.6594" filterUnits="userSpaceOnUse" color-interpolation-filters="sRGB">
<feFlood flood-opacity="0" result="BackgroundImageFix"/>
<feColorMatrix in="SourceAlpha" type="matrix" values="0 0 0 0 0 0 0 0 0 0 0 0 0 0 0 0 0 0 127 0" result="hardAlpha"/>
<feOffset dy="1.96821"/>
<feGaussianBlur stdDeviation="4.92053"/>
<feComposite in2="hardAlpha" operator="out"/>
<feColorMatrix type="matrix" values="0 0 0 0 0 0 0 0 0 0 0 0 0 0 0 0 0 0 0.25 0"/>
<feBlend mode="normal" in2="BackgroundImageFix" result="effect1_dropShadow_589_442"/>
<feBlend mode="normal" in="SourceGraphic" in2="effect1_dropShadow_589_442" result="shape"/>
</filter>
<filter id="filter2_d_589_442" x="111.181" y="182.366" width="34.8931" height="25.5884" filterUnits="userSpaceOnUse" color-interpolation-filters="sRGB">
<feFlood flood-opacity="0" result="BackgroundImageFix"/>
<feColorMatrix in="SourceAlpha" type="matrix" values="0 0 0 0 0 0 0 0 0 0 0 0 0 0 0 0 0 0 127 0" result="hardAlpha"/>
<feOffset dy="1.96821"/>
<feGaussianBlur stdDeviation="4.92053"/>
<feComposite in2="hardAlpha" operator="out"/>
<feColorMatrix type="matrix" values="0 0 0 0 0 0 0 0 0 0 0 0 0 0 0 0 0 0 0.25 0"/>
<feBlend mode="normal" in2="BackgroundImageFix" result="effect1_dropShadow_589_442"/>
<feBlend mode="normal" in="SourceGraphic" in2="effect1_dropShadow_589_442" result="shape"/>
</filter>
<filter id="filter3_d_589_442" x="171.037" y="182.12" width="37.8091" height="25.5002" filterUnits="userSpaceOnUse" color-interpolation-filters="sRGB">
<feFlood flood-opacity="0" result="BackgroundImageFix"/>
<feColorMatrix in="SourceAlpha" type="matrix" values="0 0 0 0 0 0 0 0 0 0 0 0 0 0 0 0 0 0 127 0" result="hardAlpha"/>
<feOffset dy="1.96821"/>
<feGaussianBlur stdDeviation="4.92053"/>
<feComposite in2="hardAlpha" operator="out"/>
<feColorMatrix type="matrix" values="0 0 0 0 0 0 0 0 0 0 0 0 0 0 0 0 0 0 0.25 0"/>
<feBlend mode="normal" in2="BackgroundImageFix" result="effect1_dropShadow_589_442"/>
<feBlend mode="normal" in="SourceGraphic" in2="effect1_dropShadow_589_442" result="shape"/>
</filter>
<filter id="filter4_d_589_442" x="41.5066" y="59.0329" width="51.6655" height="131.87" filterUnits="userSpaceOnUse" color-interpolation-filters="sRGB">
<feFlood flood-opacity="0" result="BackgroundImageFix"/>
<feColorMatrix in="SourceAlpha" type="matrix" values="0 0 0 0 0 0 0 0 0 0 0 0 0 0 0 0 0 0 127 0" result="hardAlpha"/>
<feOffset dy="1.96821"/>
<feGaussianBlur stdDeviation="4.92053"/>
<feComposite in2="hardAlpha" operator="out"/>
<feColorMatrix type="matrix" values="0 0 0 0 0 0 0 0 0 0 0 0 0 0 0 0 0 0 0.25 0"/>
<feBlend mode="normal" in2="BackgroundImageFix" result="effect1_dropShadow_589_442"/>
<feBlend mode="normal" in="SourceGraphic" in2="effect1_dropShadow_589_442" result="shape"/>
</filter>
<filter id="filter5_d_589_442" x="102.522" y="59.0329" width="51.6655" height="131.87" filterUnits="userSpaceOnUse" color-interpolation-filters="sRGB">
<feFlood flood-opacity="0" result="BackgroundImageFix"/>
<feColorMatrix in="SourceAlpha" type="matrix" values="0 0 0 0 0 0 0 0 0 0 0 0 0 0 0 0 0 0 127 0" result="hardAlpha"/>
<feOffset dy="1.96821"/>
<feGaussianBlur stdDeviation="4.92053"/>
<feComposite in2="hardAlpha" operator="out"/>
<feColorMatrix type="matrix" values="0 0 0 0 0 0 0 0 0 0 0 0 0 0 0 0 0 0 0.25 0"/>
<feBlend mode="normal" in2="BackgroundImageFix" result="effect1_dropShadow_589_442"/>
<feBlend mode="normal" in="SourceGraphic" in2="effect1_dropShadow_589_442" result="shape"/>
</filter>
<filter id="filter6_d_589_442" x="164.028" y="59.0329" width="51.6655" height="131.87" filterUnits="userSpaceOnUse" color-interpolation-filters="sRGB">
<feFlood flood-opacity="0" result="BackgroundImageFix"/>
<feColorMatrix in="SourceAlpha" type="matrix" values="0 0 0 0 0 0 0 0 0 0 0 0 0 0 0 0 0 0 127 0" result="hardAlpha"/>
<feOffset dy="1.96821"/>
<feGaussianBlur stdDeviation="4.92053"/>
<feComposite in2="hardAlpha" operator="out"/>
<feColorMatrix type="matrix" values="0 0 0 0 0 0 0 0 0 0 0 0 0 0 0 0 0 0 0.25 0"/>
<feBlend mode="normal" in2="BackgroundImageFix" result="effect1_dropShadow_589_442"/>
<feBlend mode="normal" in="SourceGraphic" in2="effect1_dropShadow_589_442" result="shape"/>
</filter>
<filter id="filter7_d_589_442" x="168.95" y="98.3972" width="41.8247" height="87.5854" filterUnits="userSpaceOnUse" color-interpolation-filters="sRGB">
<feFlood flood-opacity="0" result="BackgroundImageFix"/>
<feColorMatrix in="SourceAlpha" type="matrix" values="0 0 0 0 0 0 0 0 0 0 0 0 0 0 0 0 0 0 127 0" result="hardAlpha"/>
<feOffset dy="1.96821"/>
<feGaussianBlur stdDeviation="4.92053"/>
<feComposite in2="hardAlpha" operator="out"/>
<feColorMatrix type="matrix" values="0 0 0 0 0 0 0 0 0 0 0 0 0 0 0 0 0 0 0.25 0"/>
<feBlend mode="normal" in2="BackgroundImageFix" result="effect1_dropShadow_589_442"/>
<feBlend mode="normal" in="SourceGraphic" in2="effect1_dropShadow_589_442" result="shape"/>
</filter>
<filter id="filter8_d_589_442" x="107.44" y="105.286" width="41.8247" height="80.6968" filterUnits="userSpaceOnUse" color-interpolation-filters="sRGB">
<feFlood flood-opacity="0" result="BackgroundImageFix"/>
<feColorMatrix in="SourceAlpha" type="matrix" values="0 0 0 0 0 0 0 0 0 0 0 0 0 0 0 0 0 0 127 0" result="hardAlpha"/>
<feOffset dy="1.96821"/>
<feGaussianBlur stdDeviation="4.92053"/>
<feComposite in2="hardAlpha" operator="out"/>
<feColorMatrix type="matrix" values="0 0 0 0 0 0 0 0 0 0 0 0 0 0 0 0 0 0 0.25 0"/>
<feBlend mode="normal" in2="BackgroundImageFix" result="effect1_dropShadow_589_442"/>
<feBlend mode="normal" in="SourceGraphic" in2="effect1_dropShadow_589_442" result="shape"/>
</filter>
<filter id="filter9_d_589_442" x="46.4265" y="120.54" width="41.8247" height="65.4431" filterUnits="userSpaceOnUse" color-interpolation-filters="sRGB">
<feFlood flood-opacity="0" result="BackgroundImageFix"/>
<feColorMatrix in="SourceAlpha" type="matrix" values="0 0 0 0 0 0 0 0 0 0 0 0 0 0 0 0 0 0 127 0" result="hardAlpha"/>
<feOffset dy="1.96821"/>
<feGaussianBlur stdDeviation="4.92053"/>
<feComposite in2="hardAlpha" operator="out"/>
<feColorMatrix type="matrix" values="0 0 0 0 0 0 0 0 0 0 0 0 0 0 0 0 0 0 0.25 0"/>
<feBlend mode="normal" in2="BackgroundImageFix" result="effect1_dropShadow_589_442"/>
<feBlend mode="normal" in="SourceGraphic" in2="effect1_dropShadow_589_442" result="shape"/>
</filter>
<filter id="filter10_d_589_442" x="49.3347" y="108.385" width="35.7632" height="25.7266" filterUnits="userSpaceOnUse" color-interpolation-filters="sRGB">
<feFlood flood-opacity="0" result="BackgroundImageFix"/>
<feColorMatrix in="SourceAlpha" type="matrix" values="0 0 0 0 0 0 0 0 0 0 0 0 0 0 0 0 0 0 127 0" result="hardAlpha"/>
<feOffset dy="1.96821"/>
<feGaussianBlur stdDeviation="4.92053"/>
<feComposite in2="hardAlpha" operator="out"/>
<feColorMatrix type="matrix" values="0 0 0 0 0 0 0 0 0 0 0 0 0 0 0 0 0 0 0.25 0"/>
<feBlend mode="normal" in2="BackgroundImageFix" result="effect1_dropShadow_589_442"/>
<feBlend mode="normal" in="SourceGraphic" in2="effect1_dropShadow_589_442" result="shape"/>
</filter>
<filter id="filter11_d_589_442" x="110.431" y="90.1794" width="35.6128" height="25.7266" filterUnits="userSpaceOnUse" color-interpolation-filters="sRGB">
<feFlood flood-opacity="0" result="BackgroundImageFix"/>
<feColorMatrix in="SourceAlpha" type="matrix" values="0 0 0 0 0 0 0 0 0 0 0 0 0 0 0 0 0 0 127 0" result="hardAlpha"/>
<feOffset dy="1.96821"/>
<feGaussianBlur stdDeviation="4.92053"/>
<feComposite in2="hardAlpha" operator="out"/>
<feColorMatrix type="matrix" values="0 0 0 0 0 0 0 0 0 0 0 0 0 0 0 0 0 0 0.25 0"/>
<feBlend mode="normal" in2="BackgroundImageFix" result="effect1_dropShadow_589_442"/>
<feBlend mode="normal" in="SourceGraphic" in2="effect1_dropShadow_589_442" result="shape"/>
</filter>
<filter id="filter12_d_589_442" x="173.006" y="87.227" width="35.4438" height="25.7266" filterUnits="userSpaceOnUse" color-interpolation-filters="sRGB">
<feFlood flood-opacity="0" result="BackgroundImageFix"/>
<feColorMatrix in="SourceAlpha" type="matrix" values="0 0 0 0 0 0 0 0 0 0 0 0 0 0 0 0 0 0 127 0" result="hardAlpha"/>
<feOffset dy="1.96821"/>
<feGaussianBlur stdDeviation="4.92053"/>
<feComposite in2="hardAlpha" operator="out"/>
<feColorMatrix type="matrix" values="0 0 0 0 0 0 0 0 0 0 0 0 0 0 0 0 0 0 0.25 0"/>
<feBlend mode="normal" in2="BackgroundImageFix" result="effect1_dropShadow_589_442"/>
<feBlend mode="normal" in="SourceGraphic" in2="effect1_dropShadow_589_442" result="shape"/>
</filter>
<clipPath id="clip0_589_442">
<rect x="27.9453" y="53.9167" width="201.531" height="152.788" rx="4" fill="white"/>
</clipPath>
</defs>
</svg>
