<svg width="228" height="145" viewBox="0 0 228 145" fill="none" xmlns="http://www.w3.org/2000/svg">
<g filter="url(#filter0_d_589_463)">
<rect x="15.8789" y="0.948242" width="196.119" height="113.942" rx="4" fill="white"/>
<path d="M34.8691 7.50854V94.5191H198.187" stroke="#CACACA" stroke-width="0.797232"/>
<path d="M26.0605 83.6846L23.0909 83.6846L23.0909 81.7513L23.5094 81.7513L23.5094 83.2143L24.4023 83.2143L24.4023 81.9108L24.8209 81.9108L24.8209 83.2143L26.0605 83.2143L26.0605 83.6846ZM26.1084 80.4186C26.1084 80.6259 26.0592 80.8159 25.9609 80.9887C25.8626 81.1587 25.7284 81.2943 25.5583 81.3952C25.3882 81.4962 25.1955 81.5467 24.9803 81.5467C24.7624 81.5467 24.5697 81.4962 24.4023 81.3952C24.2322 81.2943 24.0994 81.1587 24.0037 80.9887C23.9054 80.8186 23.8562 80.6286 23.8562 80.4186C23.8562 80.206 23.9054 80.016 24.0037 79.8486C24.0994 79.6785 24.2322 79.5443 24.4023 79.446C24.5697 79.345 24.7624 79.2945 24.9803 79.2945C25.1982 79.2945 25.3922 79.345 25.5623 79.446C25.7324 79.547 25.8666 79.6825 25.9649 79.8526C26.0605 80.0227 26.1084 80.2114 26.1084 80.4186ZM25.6898 80.4186C25.6898 80.2911 25.6593 80.1781 25.5982 80.0798C25.537 79.9815 25.4533 79.9044 25.347 79.8486C25.2381 79.7901 25.1158 79.7609 24.9803 79.7609C24.8448 79.7609 24.7239 79.7901 24.6176 79.8486C24.5113 79.9044 24.4275 79.9815 24.3664 80.0798C24.3053 80.1781 24.2747 80.2911 24.2747 80.4186C24.2747 80.5435 24.3053 80.6565 24.3664 80.7575C24.4275 80.8558 24.5113 80.9342 24.6176 80.9926C24.7239 81.0484 24.8448 81.0763 24.9803 81.0763C25.1158 81.0763 25.2381 81.0484 25.347 80.9926C25.4533 80.9342 25.537 80.8558 25.5982 80.7575C25.6593 80.6565 25.6898 80.5435 25.6898 80.4186ZM26.0605 78.8548L23.904 78.8548L23.904 78.4243L24.3385 78.4243L24.2747 78.4641C24.1339 78.4163 24.0329 78.3392 23.9718 78.2329C23.908 78.1266 23.8761 77.9991 23.8761 77.8503L23.8761 77.7187L24.2867 77.7187L24.2867 77.9061C24.2867 78.0549 24.3332 78.1758 24.4262 78.2688C24.5166 78.3592 24.6468 78.4043 24.8169 78.4043L26.0605 78.4043L26.0605 78.8548ZM26.0605 77.4106L23.904 77.4106L23.904 76.9801L24.3704 76.9801L24.2987 77.0359C24.1525 76.9907 24.0422 76.9083 23.9678 76.7887C23.8934 76.6692 23.8562 76.5323 23.8562 76.3782C23.8562 76.2054 23.9027 76.0526 23.9957 75.9198C24.0861 75.7842 24.207 75.6939 24.3585 75.6487L24.3704 75.7763C24.1977 75.7125 24.0688 75.6155 23.9838 75.4853C23.8987 75.3524 23.8562 75.2009 23.8562 75.0308C23.8562 74.882 23.8907 74.7478 23.9598 74.6282C24.0289 74.506 24.1246 74.409 24.2468 74.3372C24.3691 74.2655 24.5086 74.2296 24.6654 74.2296L26.0605 74.2296L26.0605 74.6801L24.789 74.6801C24.68 74.6801 24.5883 74.7 24.5139 74.7399C24.4369 74.7771 24.3784 74.8302 24.3385 74.8993C24.296 74.9657 24.2747 75.0441 24.2747 75.1345C24.2747 75.2248 24.296 75.3046 24.3385 75.3737C24.3784 75.4427 24.4369 75.4972 24.5139 75.5371C24.591 75.5769 24.6827 75.5969 24.789 75.5969L26.0605 75.5969L26.0605 76.0433L24.789 76.0433C24.68 76.0433 24.5883 76.0633 24.5139 76.1031C24.4369 76.1403 24.3784 76.1935 24.3385 76.2626C24.296 76.329 24.2747 76.4087 24.2747 76.5017C24.2747 76.5921 24.296 76.6718 24.3385 76.7409C24.3784 76.81 24.4369 76.8645 24.5139 76.9043C24.591 76.9415 24.6827 76.9601 24.789 76.9601L26.0605 76.9601L26.0605 77.4106ZM26.0605 73.0069L23.0909 73.0069L23.0909 71.9266C23.0909 71.7273 23.1281 71.5519 23.2025 71.4004C23.2742 71.2463 23.3805 71.1267 23.5214 71.0417C23.6595 70.9567 23.8256 70.9141 24.0196 70.9141C24.211 70.9141 24.3757 70.958 24.5139 71.0457C24.6521 71.1307 24.7584 71.249 24.8328 71.4004C24.9072 71.5519 24.9444 71.7273 24.9444 71.9266L24.9444 72.5365L26.0605 72.5365L26.0605 73.0069ZM24.5259 72.5365L24.5259 71.9147C24.5259 71.8084 24.5046 71.7154 24.4621 71.6356C24.4196 71.5559 24.3611 71.4935 24.2867 71.4483C24.2096 71.4031 24.1193 71.3805 24.0156 71.3805C23.912 71.3805 23.823 71.4031 23.7486 71.4483C23.6715 71.4935 23.613 71.5559 23.5732 71.6356C23.5307 71.7154 23.5094 71.8084 23.5094 71.9147L23.5094 72.5365L24.5259 72.5365ZM26.0605 70.4737L23.904 70.4737L23.904 70.0432L24.3385 70.0432L24.2747 70.0831C24.1339 70.0353 24.0329 69.9582 23.9718 69.8519C23.908 69.7456 23.8761 69.618 23.8761 69.4692L23.8761 69.3377L24.2867 69.3377L24.2867 69.525C24.2867 69.6738 24.3332 69.7948 24.4262 69.8878C24.5166 69.9781 24.6468 70.0233 24.8169 70.0233L26.0605 70.0233L26.0605 70.4737ZM26.1084 67.9891C26.1084 68.1964 26.0592 68.3864 25.9609 68.5592C25.8626 68.7292 25.7284 68.8648 25.5583 68.9657C25.3882 69.0667 25.1955 69.1172 24.9803 69.1172C24.7624 69.1172 24.5697 69.0667 24.4023 68.9657C24.2322 68.8648 24.0994 68.7292 24.0037 68.5592C23.9054 68.3891 23.8562 68.1991 23.8562 67.9891C23.8562 67.7765 23.9054 67.5865 24.0037 67.4191C24.0994 67.249 24.2322 67.1148 24.4023 67.0165C24.5697 66.9155 24.7624 66.865 24.9803 66.865C25.1982 66.865 25.3922 66.9155 25.5623 67.0165C25.7324 67.1175 25.8666 67.253 25.9649 67.4231C26.0605 67.5932 26.1084 67.7819 26.1084 67.9891ZM25.6898 67.9891C25.6898 67.8616 25.6593 67.7486 25.5982 67.6503C25.537 67.552 25.4533 67.4749 25.347 67.4191C25.2381 67.3607 25.1158 67.3314 24.9803 67.3314C24.8448 67.3314 24.7239 67.3607 24.6176 67.4191C24.5113 67.4749 24.4275 67.552 24.3664 67.6503C24.3053 67.7486 24.2747 67.8616 24.2747 67.9891C24.2747 68.114 24.3053 68.227 24.3664 68.328C24.4275 68.4263 24.5113 68.5047 24.6176 68.5631C24.7239 68.6189 24.8448 68.6469 24.9803 68.6469C25.1158 68.6469 25.2381 68.6189 25.347 68.5631C25.4533 68.5047 25.537 68.4263 25.5982 68.328C25.6593 68.227 25.6898 68.114 25.6898 67.9891ZM26.9375 65.3849C26.9375 65.5417 26.9123 65.6865 26.8618 65.8194C26.8113 65.9523 26.7408 66.0665 26.6505 66.1622C26.5628 66.2579 26.4592 66.3296 26.3396 66.3775L26.1682 65.9629C26.2692 65.9257 26.3529 65.8579 26.4193 65.7596C26.4857 65.6586 26.519 65.535 26.519 65.3889C26.519 65.2746 26.4964 65.1723 26.4512 65.0819C26.4087 64.9916 26.3449 64.9198 26.2599 64.8667C26.1775 64.8135 26.0778 64.787 25.9609 64.787L25.4746 64.787L25.5663 64.7073C25.7044 64.7817 25.8094 64.8853 25.8812 65.0182C25.9529 65.1484 25.9888 65.2959 25.9888 65.4606C25.9888 65.6599 25.9423 65.8393 25.8493 65.9988C25.7563 66.1582 25.6287 66.2844 25.4666 66.3775C25.3045 66.4678 25.1225 66.513 24.9205 66.513C24.7159 66.513 24.5338 66.4678 24.3744 66.3775C24.215 66.2844 24.0887 66.1595 23.9957 66.0028C23.9027 65.846 23.8562 65.6666 23.8562 65.4646C23.8562 65.2999 23.8921 65.1537 23.9638 65.0261C24.0329 64.8959 24.1339 64.7896 24.2668 64.7073L24.3784 64.767L23.904 64.767L23.904 64.3405L25.9609 64.3405C26.1469 64.3405 26.313 64.3857 26.4592 64.4761C26.608 64.5637 26.7249 64.686 26.8099 64.8428C26.895 64.9996 26.9375 65.1803 26.9375 65.3849ZM25.5702 65.4088C25.5702 65.2892 25.5423 65.1829 25.4865 65.0899C25.4281 64.9969 25.351 64.9238 25.2553 64.8707C25.157 64.8149 25.0467 64.787 24.9245 64.787C24.8022 64.787 24.692 64.8149 24.5936 64.8707C24.4953 64.9265 24.4182 65.0009 24.3624 65.0939C24.304 65.1869 24.2747 65.2919 24.2747 65.4088C24.2747 65.5311 24.304 65.64 24.3624 65.7357C24.4182 65.8313 24.4953 65.9071 24.5936 65.9629C24.6893 66.016 24.7996 66.0426 24.9245 66.0426C25.0441 66.0426 25.153 66.016 25.2514 65.9629C25.3497 65.9071 25.4281 65.8313 25.4865 65.7357C25.5423 65.64 25.5702 65.5311 25.5702 65.4088ZM26.0605 63.8133L23.904 63.8133L23.904 63.3828L24.3385 63.3828L24.2747 63.4226C24.1339 63.3748 24.0329 63.2977 23.9718 63.1914C23.908 63.0851 23.8761 62.9576 23.8761 62.8087L23.8761 62.6772L24.2867 62.6772L24.2867 62.8646C24.2867 63.0134 24.3332 63.1343 24.4262 63.2273C24.5166 63.3176 24.6468 63.3628 24.8169 63.3628L26.0605 63.3628L26.0605 63.8133ZM26.1084 61.3566C26.1084 61.5718 26.0592 61.7632 25.9609 61.9306C25.8599 62.0953 25.7244 62.2242 25.5543 62.3172C25.3816 62.4102 25.1889 62.4567 24.9763 62.4567C24.7584 62.4567 24.5657 62.4102 24.3983 62.3172C24.2309 62.2216 24.0994 62.094 24.0037 61.9346C23.9054 61.7751 23.8562 61.5944 23.8562 61.3924C23.8562 61.2303 23.8841 61.0855 23.9399 60.958C23.9957 60.8304 24.0728 60.7228 24.1711 60.6351C24.2668 60.5474 24.3771 60.4809 24.502 60.4358C24.6269 60.3879 24.7597 60.364 24.9006 60.364C24.9351 60.364 24.971 60.3653 25.0082 60.368C25.0454 60.3707 25.08 60.376 25.1118 60.3839L25.1118 62.102L24.7531 62.102L24.7531 60.6391L24.9165 60.8543C24.7863 60.8277 24.6707 60.837 24.5697 60.8822C24.4661 60.9247 24.385 60.9912 24.3266 61.0815C24.2654 61.1692 24.2349 61.2729 24.2349 61.3924C24.2349 61.512 24.2654 61.6183 24.3266 61.7113C24.385 61.8043 24.4701 61.8761 24.5817 61.9266C24.6906 61.9771 24.8235 61.997 24.9803 61.9864C25.1265 61.9997 25.254 61.9797 25.363 61.9266C25.4719 61.8708 25.557 61.7937 25.6181 61.6954C25.6792 61.5944 25.7098 61.4801 25.7098 61.3526C25.7098 61.2224 25.6805 61.1121 25.6221 61.0217C25.5636 60.9287 25.4879 60.8556 25.3949 60.8025L25.5742 60.4358C25.6752 60.4783 25.7669 60.5447 25.8493 60.6351C25.929 60.7228 25.9928 60.8291 26.0406 60.954C26.0858 61.0762 26.1084 61.2104 26.1084 61.3566ZM26.1084 59.1272C26.1084 59.3478 26.0539 59.5417 25.9449 59.7092C25.836 59.8739 25.6898 59.9895 25.5065 60.056L25.343 59.7092C25.4653 59.6507 25.5623 59.571 25.634 59.47C25.7058 59.3664 25.7417 59.2521 25.7417 59.1272C25.7417 59.0209 25.7177 58.9345 25.6699 58.8681C25.6221 58.8017 25.557 58.7684 25.4746 58.7684C25.4214 58.7684 25.3789 58.7831 25.347 58.8123C25.3125 58.8415 25.2846 58.8787 25.2633 58.9239C25.2421 58.9664 25.2261 59.0103 25.2155 59.0554L25.1198 59.3943C25.0667 59.5803 24.9869 59.7198 24.8806 59.8128C24.7717 59.9032 24.6455 59.9483 24.502 59.9483C24.3717 59.9483 24.2588 59.9151 24.1631 59.8487C24.0648 59.7822 23.9891 59.6906 23.9359 59.5736C23.8828 59.4567 23.8562 59.3252 23.8562 59.179C23.8562 58.9824 23.9054 58.807 24.0037 58.6528C24.0994 58.4987 24.2336 58.3897 24.4063 58.326L24.5697 58.6728C24.4661 58.7153 24.3837 58.7831 24.3226 58.8761C24.2615 58.9664 24.2309 59.0687 24.2309 59.183C24.2309 59.2813 24.2548 59.3597 24.3026 59.4182C24.3478 59.4766 24.4076 59.5059 24.482 59.5059C24.5325 59.5059 24.575 59.4926 24.6096 59.466C24.6415 59.4394 24.668 59.4049 24.6893 59.3624C24.7079 59.3199 24.7239 59.276 24.7371 59.2308L24.8408 58.88C24.8913 58.702 24.971 58.5651 25.08 58.4695C25.1862 58.3738 25.3138 58.326 25.4626 58.326C25.5902 58.326 25.7031 58.3605 25.8014 58.4296C25.8971 58.496 25.9728 58.5891 26.0287 58.7086C26.0818 58.8282 26.1084 58.9677 26.1084 59.1272ZM26.1084 57.0874C26.1084 57.308 26.0539 57.502 25.9449 57.6694C25.836 57.8341 25.6898 57.9497 25.5065 58.0162L25.343 57.6694C25.4653 57.6109 25.5623 57.5312 25.634 57.4302C25.7058 57.3266 25.7417 57.2123 25.7417 57.0874C25.7417 56.9811 25.7177 56.8947 25.6699 56.8283C25.6221 56.7619 25.557 56.7286 25.4746 56.7286C25.4214 56.7286 25.3789 56.7433 25.347 56.7725C25.3125 56.8017 25.2846 56.8389 25.2633 56.8841C25.2421 56.9266 25.2261 56.9705 25.2155 57.0156L25.1198 57.3545C25.0667 57.5405 24.9869 57.68 24.8806 57.773C24.7717 57.8634 24.6455 57.9085 24.502 57.9085C24.3717 57.9085 24.2588 57.8753 24.1631 57.8089C24.0648 57.7425 23.9891 57.6508 23.9359 57.5338C23.8828 57.4169 23.8562 57.2854 23.8562 57.1392C23.8562 56.9426 23.9054 56.7672 24.0037 56.613C24.0994 56.4589 24.2336 56.35 24.4063 56.2862L24.5697 56.633C24.4661 56.6755 24.3837 56.7433 24.3226 56.8363C24.2615 56.9266 24.2309 57.0289 24.2309 57.1432C24.2309 57.2415 24.2548 57.3199 24.3026 57.3784C24.3478 57.4368 24.4076 57.4661 24.482 57.4661C24.5325 57.4661 24.575 57.4528 24.6096 57.4262C24.6415 57.3996 24.668 57.3651 24.6893 57.3226C24.7079 57.2801 24.7239 57.2362 24.7371 57.191L24.8408 56.8403C24.8913 56.6622 24.971 56.5253 25.0799 56.4297C25.1862 56.334 25.3138 56.2862 25.4626 56.2862C25.5902 56.2862 25.7031 56.3207 25.8014 56.3898C25.8971 56.4563 25.9728 56.5493 26.0287 56.6688C26.0818 56.7884 26.1084 56.9279 26.1084 57.0874ZM26.0605 55.8448L23.904 55.8448L23.904 55.3944L26.0605 55.3944L26.0605 55.8448ZM23.6091 55.8448L23.0909 55.8448L23.0909 55.3944L23.6091 55.3944L23.6091 55.8448ZM26.1084 53.8274C26.1084 54.0347 26.0592 54.2247 25.9609 54.3974C25.8626 54.5675 25.7284 54.703 25.5583 54.804C25.3882 54.905 25.1955 54.9555 24.9803 54.9555C24.7624 54.9555 24.5697 54.905 24.4023 54.804C24.2322 54.703 24.0994 54.5675 24.0037 54.3974C23.9054 54.2273 23.8562 54.0373 23.8562 53.8274C23.8562 53.6148 23.9054 53.4248 24.0037 53.2573C24.0994 53.0873 24.2322 52.9531 24.4023 52.8547C24.5697 52.7538 24.7624 52.7033 24.9803 52.7033C25.1982 52.7033 25.3922 52.7538 25.5623 52.8547C25.7324 52.9557 25.8666 53.0913 25.9649 53.2613C26.0605 53.4314 26.1084 53.6201 26.1084 53.8274ZM25.6898 53.8274C25.6898 53.6998 25.6593 53.5869 25.5982 53.4885C25.537 53.3902 25.4533 53.3132 25.347 53.2573C25.2381 53.1989 25.1158 53.1697 24.9803 53.1697C24.8448 53.1697 24.7239 53.1989 24.6176 53.2573C24.5113 53.3132 24.4275 53.3902 24.3664 53.4885C24.3053 53.5869 24.2747 53.6998 24.2747 53.8274C24.2747 53.9523 24.3053 54.0652 24.3664 54.1662C24.4275 54.2645 24.5113 54.3429 24.6176 54.4014C24.7239 54.4572 24.8448 54.4851 24.9803 54.4851C25.1158 54.4851 25.2381 54.4572 25.347 54.4014C25.4533 54.3429 25.537 54.2645 25.5982 54.1662C25.6593 54.0652 25.6898 53.9523 25.6898 53.8274ZM26.0605 52.2635L23.904 52.2635L23.904 51.833L24.3266 51.833L24.2708 51.8848C24.1352 51.8317 24.0329 51.7466 23.9638 51.6297C23.8921 51.5128 23.8562 51.3773 23.8562 51.2231C23.8562 51.0637 23.8907 50.9228 23.9598 50.8006C24.0289 50.6784 24.1246 50.5827 24.2468 50.5136C24.3691 50.4445 24.5099 50.41 24.6694 50.41L26.0605 50.41L26.0605 50.8564L24.789 50.8564C24.68 50.8564 24.5883 50.8763 24.5139 50.9162C24.4368 50.9561 24.3784 51.0132 24.3385 51.0876C24.296 51.1594 24.2747 51.2417 24.2747 51.3347C24.2747 51.4278 24.296 51.5115 24.3385 51.5859C24.3784 51.6576 24.4368 51.7134 24.5139 51.7533C24.591 51.7932 24.6827 51.8131 24.789 51.8131L26.0605 51.8131L26.0605 52.2635ZM26.6983 48.5973C26.4432 48.8152 26.1642 48.98 25.8612 49.0916C25.5583 49.2032 25.2354 49.259 24.8926 49.259C24.5471 49.259 24.2229 49.2032 23.92 49.0916C23.617 48.98 23.3407 48.8152 23.0909 48.5973L23.0909 48.2186C23.3699 48.4073 23.6609 48.5508 23.9638 48.6491C24.2641 48.7448 24.5737 48.7926 24.8926 48.7926C25.2088 48.7926 25.5198 48.7448 25.8254 48.6491C26.1283 48.5508 26.4193 48.4073 26.6983 48.2186L26.6983 48.5973ZM26.0605 47.7897L23.0909 47.7897L23.0909 46.8171C23.0909 46.5089 23.1533 46.2418 23.2782 46.0159C23.4004 45.7874 23.5732 45.6106 23.7964 45.4857C24.0196 45.3608 24.2787 45.2984 24.5737 45.2984C24.866 45.2984 25.1251 45.3608 25.351 45.4857C25.5742 45.6106 25.7483 45.7874 25.8732 46.0159C25.9981 46.2418 26.0605 46.5089 26.0605 46.8171L26.0605 47.7897ZM25.642 47.3194L25.642 46.8092C25.642 46.5992 25.5982 46.4172 25.5105 46.263C25.4228 46.1063 25.2992 45.9853 25.1397 45.9003C24.9803 45.8153 24.7916 45.7727 24.5737 45.7727C24.3558 45.7727 24.1684 45.8166 24.0117 45.9043C23.8522 45.9893 23.7286 46.1089 23.6409 46.263C23.5533 46.4172 23.5094 46.5992 23.5094 46.8092L23.5094 47.3194L25.642 47.3194ZM26.1084 43.8665C26.1084 44.0818 26.0592 44.2731 25.9609 44.4405C25.8599 44.6053 25.7244 44.7342 25.5543 44.8272C25.3816 44.9202 25.1889 44.9667 24.9763 44.9667C24.7584 44.9667 24.5657 44.9202 24.3983 44.8272C24.2309 44.7315 24.0994 44.604 24.0037 44.4445C23.9054 44.2851 23.8562 44.1044 23.8562 43.9024C23.8562 43.7403 23.8841 43.5955 23.9399 43.4679C23.9957 43.3403 24.0728 43.2327 24.1711 43.145C24.2668 43.0573 24.3771 42.9909 24.502 42.9457C24.6269 42.8979 24.7597 42.874 24.9006 42.874C24.9351 42.874 24.971 42.8753 25.0082 42.878C25.0454 42.8806 25.0799 42.8859 25.1118 42.8939L25.1118 44.6119L24.7531 44.6119L24.7531 43.149L24.9165 43.3643C24.7863 43.3377 24.6707 43.347 24.5697 43.3922C24.4661 43.4347 24.385 43.5011 24.3266 43.5915C24.2654 43.6792 24.2349 43.7828 24.2349 43.9024C24.2349 44.022 24.2654 44.1283 24.3266 44.2213C24.385 44.3143 24.4701 44.386 24.5817 44.4365C24.6906 44.487 24.8235 44.507 24.9803 44.4963C25.1265 44.5096 25.254 44.4897 25.363 44.4365C25.4719 44.3807 25.557 44.3037 25.6181 44.2053C25.6792 44.1044 25.7098 43.9901 25.7098 43.8625C25.7098 43.7323 25.6805 43.622 25.6221 43.5317C25.5636 43.4387 25.4879 43.3656 25.3949 43.3124L25.5742 42.9457C25.6752 42.9882 25.7669 43.0547 25.8493 43.145C25.929 43.2327 25.9928 43.339 26.0406 43.4639C26.0858 43.5862 26.1084 43.7204 26.1084 43.8665ZM26.9375 41.394C26.9375 41.5508 26.9123 41.6956 26.8618 41.8285C26.8113 41.9613 26.7408 42.0756 26.6505 42.1713C26.5628 42.267 26.4592 42.3387 26.3396 42.3865L26.1682 41.972C26.2692 41.9348 26.3529 41.867 26.4193 41.7687C26.4857 41.6677 26.519 41.5441 26.519 41.398C26.519 41.2837 26.4964 41.1814 26.4512 41.091C26.4087 41.0007 26.3449 40.9289 26.2599 40.8758C26.1775 40.8226 26.0778 40.7961 25.9609 40.7961L25.4746 40.7961L25.5663 40.7163C25.7044 40.7907 25.8094 40.8944 25.8812 41.0273C25.9529 41.1575 25.9888 41.305 25.9888 41.4697C25.9888 41.669 25.9423 41.8484 25.8493 42.0079C25.7563 42.1673 25.6287 42.2935 25.4666 42.3865C25.3045 42.4769 25.1225 42.5221 24.9205 42.5221C24.7159 42.5221 24.5338 42.4769 24.3744 42.3865C24.215 42.2935 24.0887 42.1686 23.9957 42.0118C23.9027 41.855 23.8562 41.6757 23.8562 41.4737C23.8562 41.3089 23.8921 41.1628 23.9638 41.0352C24.0329 40.905 24.1339 40.7987 24.2668 40.7163L24.3784 40.7761L23.904 40.7761L23.904 40.3496L25.9609 40.3496C26.1469 40.3496 26.313 40.3948 26.4592 40.4851C26.608 40.5728 26.7249 40.6951 26.8099 40.8519C26.895 41.0087 26.9375 41.1894 26.9375 41.394ZM25.5702 41.4179C25.5702 41.2983 25.5423 41.192 25.4865 41.099C25.4281 41.006 25.351 40.9329 25.2553 40.8798C25.157 40.824 25.0467 40.7961 24.9245 40.7961C24.8022 40.7961 24.692 40.824 24.5936 40.8798C24.4953 40.9356 24.4182 41.01 24.3624 41.103C24.304 41.196 24.2747 41.301 24.2747 41.4179C24.2747 41.5401 24.304 41.6491 24.3624 41.7448C24.4182 41.8404 24.4953 41.9162 24.5936 41.972C24.6893 42.0251 24.7996 42.0517 24.9245 42.0517C25.0441 42.0517 25.153 42.0251 25.2514 41.972C25.3497 41.9162 25.4281 41.8404 25.4865 41.7448C25.5423 41.6491 25.5702 41.5401 25.5702 41.4179ZM26.0605 39.8223L23.904 39.8223L23.904 39.3918L24.3385 39.3918L24.2747 39.4317C24.1339 39.3839 24.0329 39.3068 23.9718 39.2005C23.908 39.0942 23.8761 38.9667 23.8761 38.8178L23.8761 38.6863L24.2867 38.6863L24.2867 38.8736C24.2867 39.0225 24.3332 39.1434 24.4262 39.2364C24.5166 39.3267 24.6468 39.3719 24.8169 39.3719L26.0605 39.3719L26.0605 39.8223ZM26.1084 37.3657C26.1084 37.5809 26.0592 37.7722 25.9609 37.9397C25.8599 38.1044 25.7244 38.2333 25.5543 38.3263C25.3816 38.4193 25.1889 38.4658 24.9763 38.4658C24.7584 38.4658 24.5657 38.4193 24.3983 38.3263C24.2309 38.2307 24.0994 38.1031 24.0037 37.9436C23.9054 37.7842 23.8562 37.6035 23.8562 37.4015C23.8562 37.2394 23.8841 37.0946 23.9399 36.967C23.9957 36.8395 24.0728 36.7319 24.1711 36.6442C24.2668 36.5565 24.3771 36.49 24.502 36.4449C24.6269 36.397 24.7597 36.3731 24.9006 36.3731C24.9351 36.3731 24.971 36.3744 25.0082 36.3771C25.0454 36.3797 25.0799 36.3851 25.1118 36.393L25.1118 38.1111L24.7531 38.1111L24.7531 36.6481L24.9165 36.8634C24.7863 36.8368 24.6707 36.8461 24.5697 36.8913C24.4661 36.9338 24.385 37.0003 24.3266 37.0906C24.2654 37.1783 24.2349 37.2819 24.2349 37.4015C24.2349 37.5211 24.2654 37.6274 24.3266 37.7204C24.385 37.8134 24.4701 37.8852 24.5817 37.9357C24.6906 37.9862 24.8235 38.0061 24.9803 37.9955C25.1265 38.0088 25.254 37.9888 25.363 37.9357C25.4719 37.8799 25.557 37.8028 25.6181 37.7045C25.6792 37.6035 25.7098 37.4892 25.7098 37.3617C25.7098 37.2315 25.6805 37.1212 25.6221 37.0308C25.5636 36.9378 25.4879 36.8647 25.3949 36.8116L25.5742 36.4449C25.6752 36.4874 25.7669 36.5538 25.8493 36.6442C25.929 36.7319 25.9928 36.8382 26.0406 36.9631C26.0858 37.0853 26.1084 37.2195 26.1084 37.3657ZM26.1084 34.921C26.1084 35.1363 26.0592 35.3276 25.9609 35.495C25.8599 35.6598 25.7244 35.7887 25.5543 35.8817C25.3816 35.9747 25.1889 36.0212 24.9763 36.0212C24.7584 36.0212 24.5657 35.9747 24.3983 35.8817C24.2309 35.786 24.0994 35.6585 24.0037 35.499C23.9054 35.3396 23.8562 35.1589 23.8562 34.9569C23.8562 34.7948 23.8841 34.65 23.9399 34.5224C23.9957 34.3949 24.0728 34.2872 24.1711 34.1995C24.2668 34.1118 24.3771 34.0454 24.502 34.0002C24.6269 33.9524 24.7597 33.9285 24.9006 33.9285C24.9351 33.9285 24.971 33.9298 25.0082 33.9325C25.0454 33.9351 25.0799 33.9404 25.1118 33.9484L25.1118 35.6664L24.7531 35.6664L24.7531 34.2035L24.9165 34.4188C24.7863 34.3922 24.6707 34.4015 24.5697 34.4467C24.4661 34.4892 24.385 34.5556 24.3266 34.646C24.2654 34.7337 24.2349 34.8373 24.2349 34.9569C24.2349 35.0765 24.2654 35.1828 24.3266 35.2758C24.385 35.3688 24.4701 35.4406 24.5817 35.491C24.6906 35.5415 24.8235 35.5615 24.9803 35.5508C25.1265 35.5641 25.254 35.5442 25.363 35.491C25.4719 35.4352 25.557 35.3582 25.6181 35.2598C25.6792 35.1589 25.7098 35.0446 25.7098 34.917C25.7098 34.7868 25.6805 34.6765 25.6221 34.5862C25.5636 34.4932 25.4879 34.4201 25.3949 34.3669L25.5742 34.0002C25.6752 34.0427 25.7669 34.1092 25.8493 34.1995C25.929 34.2872 25.9928 34.3935 26.0406 34.5184C26.0858 34.6407 26.1084 34.7749 26.1084 34.921ZM26.1084 32.6916C26.1084 32.9122 26.0539 33.1062 25.9449 33.2736C25.836 33.4384 25.6898 33.554 25.5065 33.6204L25.343 33.2736C25.4653 33.2152 25.5623 33.1354 25.634 33.0344C25.7058 32.9308 25.7417 32.8165 25.7417 32.6916C25.7417 32.5853 25.7177 32.499 25.6699 32.4325C25.6221 32.3661 25.557 32.3329 25.4746 32.3329C25.4214 32.3329 25.3789 32.3475 25.347 32.3767C25.3125 32.406 25.2846 32.4432 25.2633 32.4883C25.2421 32.5309 25.2261 32.5747 25.2155 32.6199L25.1198 32.9587C25.0667 33.1447 24.9869 33.2842 24.8806 33.3773C24.7717 33.4676 24.6455 33.5128 24.502 33.5128C24.3717 33.5128 24.2588 33.4796 24.1631 33.4131C24.0648 33.3467 23.9891 33.255 23.9359 33.1381C23.8828 33.0212 23.8562 32.8896 23.8562 32.7435C23.8562 32.5468 23.9054 32.3714 24.0037 32.2173C24.0994 32.0632 24.2336 31.9542 24.4063 31.8904L24.5697 32.2372C24.4661 32.2797 24.3837 32.3475 24.3226 32.4405C24.2615 32.5309 24.2309 32.6332 24.2309 32.7474C24.2309 32.8458 24.2548 32.9242 24.3026 32.9826C24.3478 33.0411 24.4076 33.0703 24.482 33.0703C24.5325 33.0703 24.575 33.057 24.6096 33.0305C24.6415 33.0039 24.668 32.9693 24.6893 32.9268C24.7079 32.8843 24.7239 32.8405 24.7371 32.7953L24.8408 32.4445C24.8913 32.2664 24.971 32.1296 25.0799 32.0339C25.1862 31.9383 25.3138 31.8904 25.4626 31.8904C25.5902 31.8904 25.7031 31.925 25.8014 31.9941C25.8971 32.0605 25.9728 32.1535 26.0287 32.2731C26.0818 32.3927 26.1084 32.5322 26.1084 32.6916ZM26.6983 31.5886C26.4193 31.3973 26.1283 31.2538 25.8254 31.1581C25.5198 31.0624 25.2088 31.0146 24.8926 31.0146C24.5737 31.0146 24.2641 31.0624 23.9638 31.1581C23.6609 31.2538 23.3699 31.3973 23.0909 31.5886L23.0909 31.2099C23.3407 30.9893 23.617 30.8233 23.92 30.7116C24.2229 30.6 24.5471 30.5442 24.8926 30.5442C25.2354 30.5442 25.5583 30.6 25.8612 30.7116C26.1642 30.8233 26.4432 30.9893 26.6983 31.2099L26.6983 31.5886Z" fill="#A08ED2"/>
<path d="M97.5156 109.223L97.5156 106.253H98.4882C98.7965 106.253 99.0635 106.316 99.2894 106.441C99.518 106.563 99.6947 106.736 99.8196 106.959C99.9445 107.182 100.007 107.441 100.007 107.736C100.007 108.028 99.9445 108.287 99.8196 108.513C99.6947 108.737 99.518 108.911 99.2894 109.036C99.0635 109.16 98.7965 109.223 98.4882 109.223H97.5156ZM97.9859 108.804H98.4962C98.7061 108.804 98.8881 108.761 99.0423 108.673C99.1991 108.585 99.32 108.462 99.405 108.302C99.4901 108.143 99.5326 107.954 99.5326 107.736C99.5326 107.518 99.4887 107.331 99.401 107.174C99.316 107.015 99.1964 106.891 99.0423 106.803C98.8881 106.716 98.7061 106.672 98.4962 106.672H97.9859V108.804ZM101.196 109.271C101.034 109.271 100.891 109.235 100.769 109.163C100.647 109.089 100.551 108.986 100.482 108.856C100.416 108.723 100.382 108.57 100.382 108.398V107.066H100.833V108.358C100.833 108.456 100.853 108.543 100.893 108.617C100.933 108.691 100.988 108.75 101.06 108.792C101.132 108.832 101.214 108.852 101.307 108.852C101.403 108.852 101.487 108.831 101.558 108.788C101.63 108.746 101.686 108.686 101.726 108.609C101.768 108.532 101.79 108.442 101.79 108.338V107.066H102.236V109.223H101.81V108.8L101.857 108.856C101.807 108.989 101.723 109.091 101.606 109.163C101.489 109.235 101.352 109.271 101.196 109.271ZM102.762 109.223V107.066H103.192V107.501L103.153 107.437C103.2 107.296 103.277 107.195 103.384 107.134C103.49 107.07 103.618 107.038 103.766 107.038H103.898V107.449H103.711C103.562 107.449 103.441 107.496 103.348 107.589C103.258 107.679 103.212 107.809 103.212 107.979L103.212 109.223H102.762ZM104.852 109.271C104.706 109.271 104.577 109.245 104.465 109.195C104.356 109.142 104.271 109.07 104.21 108.98C104.149 108.887 104.118 108.778 104.118 108.653C104.118 108.536 104.144 108.431 104.194 108.338C104.247 108.245 104.328 108.167 104.437 108.103C104.546 108.039 104.683 107.994 104.848 107.967L105.597 107.844V108.198L104.936 108.314C104.816 108.335 104.728 108.374 104.673 108.43C104.617 108.483 104.589 108.552 104.589 108.637C104.589 108.719 104.619 108.787 104.681 108.84C104.744 108.891 104.825 108.916 104.924 108.916C105.046 108.916 105.152 108.889 105.243 108.836C105.336 108.783 105.407 108.713 105.458 108.625C105.508 108.535 105.534 108.435 105.534 108.326V107.772C105.534 107.666 105.494 107.579 105.414 107.513C105.337 107.444 105.233 107.409 105.103 107.409C104.983 107.409 104.878 107.441 104.788 107.505C104.7 107.566 104.635 107.646 104.593 107.744L104.218 107.557C104.258 107.45 104.323 107.357 104.413 107.278C104.504 107.195 104.609 107.131 104.728 107.086C104.851 107.041 104.979 107.019 105.115 107.019C105.285 107.019 105.435 107.05 105.565 107.114C105.698 107.178 105.801 107.267 105.872 107.381C105.947 107.493 105.984 107.623 105.984 107.772V109.223H105.553V108.832L105.645 108.844C105.595 108.932 105.53 109.008 105.45 109.071C105.373 109.135 105.284 109.184 105.183 109.219C105.084 109.253 104.974 109.271 104.852 109.271ZM107.404 109.247C107.179 109.247 107.003 109.183 106.878 109.055C106.753 108.928 106.691 108.749 106.691 108.517V107.473H106.312V107.066H106.372C106.473 107.066 106.551 107.037 106.607 106.979C106.663 106.92 106.691 106.841 106.691 106.74V106.572H107.141V107.066H107.632V107.473H107.141V108.497C107.141 108.572 107.153 108.636 107.177 108.689C107.201 108.739 107.24 108.779 107.293 108.808C107.346 108.835 107.415 108.848 107.5 108.848C107.521 108.848 107.545 108.847 107.572 108.844C107.598 108.842 107.624 108.839 107.648 108.836V109.223C107.61 109.228 107.569 109.234 107.524 109.239C107.479 109.244 107.439 109.247 107.404 109.247ZM108.087 109.223V107.066H108.538V109.223H108.087ZM108.087 106.771V106.253H108.538V106.771H108.087ZM110.105 109.271C109.897 109.271 109.707 109.222 109.535 109.123C109.365 109.025 109.229 108.891 109.128 108.721C109.027 108.551 108.977 108.358 108.977 108.143C108.977 107.925 109.027 107.732 109.128 107.565C109.229 107.395 109.365 107.262 109.535 107.166C109.705 107.068 109.895 107.019 110.105 107.019C110.317 107.019 110.507 107.068 110.675 107.166C110.845 107.262 110.979 107.395 111.077 107.565C111.178 107.732 111.229 107.925 111.229 108.143C111.229 108.361 111.178 108.555 111.077 108.725C110.976 108.895 110.841 109.029 110.671 109.127C110.501 109.223 110.312 109.271 110.105 109.271ZM110.105 108.852C110.232 108.852 110.345 108.822 110.443 108.761C110.542 108.699 110.619 108.616 110.675 108.509C110.733 108.4 110.762 108.278 110.762 108.143C110.762 108.007 110.733 107.886 110.675 107.78C110.619 107.674 110.542 107.59 110.443 107.529C110.345 107.468 110.232 107.437 110.105 107.437C109.98 107.437 109.867 107.468 109.766 107.529C109.668 107.59 109.589 107.674 109.531 107.78C109.475 107.886 109.447 108.007 109.447 108.143C109.447 108.278 109.475 108.4 109.531 108.509C109.589 108.616 109.668 108.699 109.766 108.761C109.867 108.822 109.98 108.852 110.105 108.852ZM111.669 109.223V107.066H112.099V107.489L112.047 107.433C112.1 107.298 112.185 107.195 112.302 107.126C112.419 107.054 112.555 107.019 112.709 107.019C112.868 107.019 113.009 107.053 113.131 107.122C113.254 107.191 113.349 107.287 113.418 107.409C113.488 107.531 113.522 107.672 113.522 107.832V109.223H113.076V107.951C113.076 107.842 113.056 107.751 113.016 107.676C112.976 107.599 112.919 107.541 112.844 107.501C112.773 107.458 112.69 107.437 112.597 107.437C112.504 107.437 112.421 107.458 112.346 107.501C112.274 107.541 112.219 107.599 112.179 107.676C112.139 107.753 112.119 107.845 112.119 107.951V109.223H111.669ZM115.741 109.271C115.534 109.271 115.344 109.222 115.171 109.123C115.001 109.025 114.866 108.891 114.765 108.721C114.664 108.551 114.613 108.358 114.613 108.143C114.613 107.925 114.664 107.732 114.765 107.565C114.866 107.395 115.001 107.262 115.171 107.166C115.341 107.068 115.531 107.019 115.741 107.019C115.954 107.019 116.144 107.068 116.311 107.166C116.481 107.262 116.616 107.395 116.714 107.565C116.815 107.732 116.865 107.925 116.865 108.143C116.865 108.361 116.815 108.555 116.714 108.725C116.613 108.895 116.477 109.029 116.307 109.127C116.137 109.223 115.949 109.271 115.741 109.271ZM115.741 108.852C115.869 108.852 115.982 108.822 116.08 108.761C116.178 108.699 116.256 108.616 116.311 108.509C116.37 108.4 116.399 108.278 116.399 108.143C116.399 108.007 116.37 107.886 116.311 107.78C116.256 107.674 116.178 107.59 116.08 107.529C115.982 107.468 115.869 107.437 115.741 107.437C115.616 107.437 115.504 107.468 115.403 107.529C115.304 107.59 115.226 107.674 115.167 107.78C115.112 107.886 115.084 108.007 115.084 108.143C115.084 108.278 115.112 108.4 115.167 108.509C115.226 108.616 115.304 108.699 115.403 108.761C115.504 108.822 115.616 108.852 115.741 108.852ZM117.49 109.223V107.473H117.091V107.066H117.49V106.955C117.49 106.793 117.523 106.657 117.59 106.548C117.656 106.437 117.748 106.352 117.865 106.293C117.984 106.235 118.121 106.205 118.275 106.205C118.304 106.205 118.338 106.208 118.375 106.213C118.412 106.216 118.443 106.22 118.467 106.225V106.616C118.445 106.611 118.421 106.608 118.395 106.608C118.368 106.605 118.347 106.604 118.331 106.604C118.211 106.604 118.116 106.632 118.044 106.688C117.972 106.741 117.936 106.83 117.936 106.955V107.066H118.431V107.473H117.936V109.223H117.49ZM119.591 109.223V106.253H121.548V106.672H120.062V107.525H121.469V107.943H120.062V108.804H121.548V109.223H119.591ZM121.726 109.223L122.48 108.143L121.726 107.066H122.256L122.874 107.967H122.619L123.237 107.066H123.767L123.01 108.143L123.763 109.223H123.233L122.623 108.318H122.87L122.256 109.223H121.726ZM125.009 109.271C124.794 109.271 124.603 109.222 124.435 109.123C124.271 109.022 124.142 108.887 124.049 108.717C123.956 108.544 123.909 108.351 123.909 108.139C123.909 107.921 123.956 107.728 124.049 107.561C124.144 107.393 124.272 107.262 124.431 107.166C124.591 107.068 124.771 107.019 124.973 107.019C125.136 107.019 125.28 107.046 125.408 107.102C125.535 107.158 125.643 107.235 125.731 107.333C125.818 107.429 125.885 107.539 125.93 107.664C125.978 107.789 126.002 107.922 126.002 108.063C126.002 108.097 126.001 108.133 125.998 108.171C125.995 108.208 125.99 108.242 125.982 108.274H124.264V107.915H125.727L125.512 108.079C125.538 107.949 125.529 107.833 125.484 107.732C125.441 107.628 125.375 107.547 125.284 107.489C125.197 107.428 125.093 107.397 124.973 107.397C124.854 107.397 124.748 107.428 124.655 107.489C124.562 107.547 124.49 107.632 124.439 107.744C124.389 107.853 124.369 107.986 124.379 108.143C124.366 108.289 124.386 108.416 124.439 108.525C124.495 108.634 124.572 108.719 124.67 108.78C124.771 108.842 124.886 108.872 125.013 108.872C125.143 108.872 125.254 108.843 125.344 108.784C125.437 108.726 125.51 108.65 125.563 108.557L125.93 108.737C125.888 108.838 125.821 108.929 125.731 109.012C125.643 109.091 125.537 109.155 125.412 109.203C125.29 109.248 125.155 109.271 125.009 109.271ZM126.441 109.223V107.066H126.872V107.501L126.832 107.437C126.88 107.296 126.957 107.195 127.063 107.134C127.17 107.07 127.297 107.038 127.446 107.038H127.578V107.449H127.39C127.241 107.449 127.12 107.496 127.027 107.589C126.937 107.679 126.892 107.809 126.892 107.979V109.223H126.441ZM128.91 109.271C128.695 109.271 128.504 109.222 128.336 109.123C128.171 109.022 128.04 108.887 127.941 108.717C127.846 108.547 127.798 108.354 127.798 108.139C127.798 107.926 127.846 107.735 127.941 107.565C128.037 107.395 128.169 107.262 128.336 107.166C128.504 107.068 128.695 107.019 128.91 107.019C129.056 107.019 129.193 107.045 129.321 107.098C129.448 107.149 129.559 107.219 129.652 107.31C129.747 107.4 129.818 107.505 129.863 107.624L129.468 107.808C129.423 107.696 129.35 107.607 129.249 107.541C129.151 107.472 129.038 107.437 128.91 107.437C128.788 107.437 128.678 107.468 128.579 107.529C128.484 107.587 128.408 107.671 128.352 107.78C128.296 107.886 128.268 108.007 128.268 108.143C128.268 108.278 128.296 108.4 128.352 108.509C128.408 108.616 128.484 108.699 128.579 108.761C128.678 108.822 128.788 108.852 128.91 108.852C129.04 108.852 129.153 108.819 129.249 108.753C129.347 108.683 129.42 108.592 129.468 108.477L129.863 108.665C129.82 108.779 129.751 108.883 129.656 108.976C129.562 109.066 129.452 109.138 129.325 109.191C129.197 109.244 129.059 109.271 128.91 109.271ZM130.303 109.223V107.066H130.753V109.223H130.303ZM130.303 106.771V106.253H130.753V106.771H130.303ZM132.077 109.271C131.857 109.271 131.663 109.216 131.495 109.107C131.331 108.998 131.215 108.852 131.149 108.669L131.495 108.505C131.554 108.628 131.634 108.725 131.735 108.796C131.838 108.868 131.952 108.904 132.077 108.904C132.184 108.904 132.27 108.88 132.336 108.832C132.403 108.784 132.436 108.719 132.436 108.637C132.436 108.584 132.421 108.541 132.392 108.509C132.363 108.475 132.326 108.447 132.281 108.426C132.238 108.404 132.194 108.388 132.149 108.378L131.81 108.282C131.624 108.229 131.485 108.149 131.392 108.043C131.301 107.934 131.256 107.808 131.256 107.664C131.256 107.534 131.289 107.421 131.356 107.325C131.422 107.227 131.514 107.151 131.631 107.098C131.748 107.045 131.879 107.019 132.026 107.019C132.222 107.019 132.398 107.068 132.552 107.166C132.706 107.262 132.815 107.396 132.879 107.569L132.532 107.732C132.489 107.628 132.421 107.546 132.328 107.485C132.238 107.424 132.136 107.393 132.022 107.393C131.923 107.393 131.845 107.417 131.786 107.465C131.728 107.51 131.699 107.57 131.699 107.644C131.699 107.695 131.712 107.737 131.739 107.772C131.765 107.804 131.8 107.83 131.842 107.852C131.885 107.87 131.929 107.886 131.974 107.899L132.324 108.003C132.503 108.054 132.639 108.133 132.735 108.242C132.831 108.349 132.879 108.476 132.879 108.625C132.879 108.753 132.844 108.865 132.775 108.964C132.708 109.059 132.615 109.135 132.496 109.191C132.376 109.244 132.237 109.271 132.077 109.271ZM134.332 109.271C134.117 109.271 133.926 109.222 133.758 109.123C133.594 109.022 133.465 108.887 133.372 108.717C133.279 108.544 133.232 108.351 133.232 108.139C133.232 107.921 133.279 107.728 133.372 107.561C133.467 107.393 133.595 107.262 133.754 107.166C133.914 107.068 134.095 107.019 134.297 107.019C134.459 107.019 134.603 107.046 134.731 107.102C134.859 107.158 134.966 107.235 135.054 107.333C135.142 107.429 135.208 107.539 135.253 107.664C135.301 107.789 135.325 107.922 135.325 108.063C135.325 108.097 135.324 108.133 135.321 108.171C135.318 108.208 135.313 108.242 135.305 108.274H133.587V107.915H135.05L134.835 108.079C134.861 107.949 134.852 107.833 134.807 107.732C134.764 107.628 134.698 107.547 134.607 107.489C134.52 107.428 134.416 107.397 134.297 107.397C134.177 107.397 134.071 107.428 133.978 107.489C133.885 107.547 133.813 107.632 133.762 107.744C133.712 107.853 133.692 107.986 133.703 108.143C133.689 108.289 133.709 108.416 133.762 108.525C133.818 108.634 133.895 108.719 133.994 108.78C134.095 108.842 134.209 108.872 134.336 108.872C134.467 108.872 134.577 108.843 134.667 108.784C134.76 108.726 134.833 108.65 134.886 108.557L135.253 108.737C135.211 108.838 135.144 108.929 135.054 109.012C134.966 109.091 134.86 109.155 134.735 109.203C134.613 109.248 134.479 109.271 134.332 109.271Z" fill="#A08ED2"/>
<path d="M74.2725 26.3568C70.478 26.3568 68.5202 20.6969 68.0156 17.8669H164.694C164.189 20.6969 161.202 26.3568 157.731 26.3568C154.259 26.3568 151.878 30.6464 151.878 33.0593H80.5293C80.5293 30.9145 78.6119 26.3568 74.2725 26.3568Z" fill="#076787"/>
<path d="M81.7659 41.3335C81.0345 39.8625 80.4453 35.2656 80.4453 33.0591H152.264C152.264 35.5414 152.264 39.7706 151.349 41.3335C150.758 42.3448 150.164 46.5127 150.13 48.5967H82.6801C82.6801 46.7886 82.4973 42.8046 81.7659 41.3335Z" fill="#1382A7"/>
<path d="M85.5596 57.3279C83.5316 55.5817 82.5177 50.8668 82.5176 48.5967H149.847C149.847 51.9145 148.326 56.3675 146.805 57.3279C145.588 58.0962 144.98 61.7808 144.98 63.7017L87.689 63.789C87.689 62.392 87.5876 59.0741 85.5596 57.3279Z" fill="#82B2C2"/>
<path d="M92.185 72.2264C88.8576 70.7316 87.6973 65.8724 87.6973 63.5367L145.014 63.4438C145.014 65.8729 143.496 70.8811 140.169 72.2264C136.841 73.5717 135.096 77.2714 135.096 79.3267H97.2573C97.2573 76.9911 95.5124 73.7212 92.185 72.2264Z" fill="#9FCFDF"/>
<path d="M97.7129 94.5187V79.3264H135.694V94.5187H97.7129Z" fill="#9FCFDF" fill-opacity="0.4"/>
<path d="M194.644 14.2349L193.827 11.2652H194.325L194.987 13.8362H194.864L195.549 11.2652H196.04L196.725 13.8362H196.598L197.263 11.2652H197.758L196.944 14.2349H196.414L195.725 11.7037H195.864L195.171 14.2349H194.644ZM198.936 14.2827C198.721 14.2827 198.53 14.2335 198.362 14.1352C198.197 14.0342 198.068 13.8987 197.975 13.7286C197.882 13.5559 197.836 13.3632 197.836 13.1506C197.836 12.9327 197.882 12.7401 197.975 12.5726C198.071 12.4052 198.199 12.2737 198.358 12.178C198.518 12.0797 198.698 12.0305 198.9 12.0305C199.062 12.0305 199.207 12.0584 199.335 12.1142C199.462 12.17 199.57 12.2471 199.658 12.3454C199.745 12.4411 199.812 12.5514 199.857 12.6763C199.905 12.8012 199.929 12.934 199.929 13.0749C199.929 13.1094 199.927 13.1453 199.925 13.1825C199.922 13.2197 199.917 13.2543 199.909 13.2862H198.191V12.9274H199.654L199.438 13.0908C199.465 12.9606 199.456 12.845 199.41 12.744C199.368 12.6404 199.301 12.5593 199.211 12.5009C199.123 12.4398 199.02 12.4092 198.9 12.4092C198.781 12.4092 198.674 12.4398 198.581 12.5009C198.488 12.5593 198.417 12.6444 198.366 12.756C198.316 12.865 198.296 12.9978 198.306 13.1546C198.293 13.3008 198.313 13.4283 198.366 13.5373C198.422 13.6462 198.499 13.7313 198.597 13.7924C198.698 13.8535 198.813 13.8841 198.94 13.8841C199.07 13.8841 199.181 13.8548 199.271 13.7964C199.364 13.7379 199.437 13.6622 199.49 13.5692L199.857 13.7486C199.814 13.8495 199.748 13.9412 199.658 14.0236C199.57 14.1033 199.464 14.1671 199.339 14.2149C199.216 14.2601 199.082 14.2827 198.936 14.2827ZM201.381 14.2827C201.165 14.2827 200.974 14.2335 200.807 14.1352C200.642 14.0342 200.513 13.8987 200.42 13.7286C200.327 13.5559 200.281 13.3632 200.281 13.1506C200.281 12.9327 200.327 12.7401 200.42 12.5726C200.516 12.4052 200.643 12.2737 200.803 12.178C200.962 12.0797 201.143 12.0305 201.345 12.0305C201.507 12.0305 201.652 12.0584 201.779 12.1142C201.907 12.17 202.015 12.2471 202.102 12.3454C202.19 12.4411 202.256 12.5514 202.302 12.6763C202.349 12.8012 202.373 12.934 202.373 13.0749C202.373 13.1094 202.372 13.1453 202.369 13.1825C202.367 13.2197 202.361 13.2543 202.353 13.2862H200.635V12.9274H202.098L201.883 13.0908C201.91 12.9606 201.9 12.845 201.855 12.744C201.813 12.6404 201.746 12.5593 201.656 12.5009C201.568 12.4398 201.464 12.4092 201.345 12.4092C201.225 12.4092 201.119 12.4398 201.026 12.5009C200.933 12.5593 200.861 12.6444 200.811 12.756C200.76 12.865 200.74 12.9978 200.751 13.1546C200.738 13.3008 200.758 13.4283 200.811 13.5373C200.867 13.6462 200.944 13.7313 201.042 13.7924C201.143 13.8535 201.257 13.8841 201.385 13.8841C201.515 13.8841 201.625 13.8548 201.716 13.7964C201.809 13.7379 201.882 13.6622 201.935 13.5692L202.302 13.7486C202.259 13.8495 202.193 13.9412 202.102 14.0236C202.015 14.1033 201.908 14.1671 201.783 14.2149C201.661 14.2601 201.527 14.2827 201.381 14.2827ZM202.813 14.2349V11.2173H203.263V13.2383L203.088 13.1945L204.168 12.0784H204.73L203.917 12.9433L204.766 14.2349H204.248L203.491 13.0908L203.758 13.055L203.12 13.7326L203.263 13.4336V14.2349H202.813Z" fill="#A08ED2"/>
<path d="M188.172 11.3064L190.114 13.1155L191.991 11.3064" stroke="#A08ED2" stroke-width="0.797232"/>
</g>
<defs>
<filter id="filter0_d_589_463" x="0.702138" y="0.386138" width="226.473" height="144.296" filterUnits="userSpaceOnUse" color-interpolation-filters="sRGB">
<feFlood flood-opacity="0" result="BackgroundImageFix"/>
<feColorMatrix in="SourceAlpha" type="matrix" values="0 0 0 0 0 0 0 0 0 0 0 0 0 0 0 0 0 0 127 0" result="hardAlpha"/>
<feOffset dy="14.6147"/>
<feGaussianBlur stdDeviation="7.58838"/>
<feComposite in2="hardAlpha" operator="out"/>
<feColorMatrix type="matrix" values="0 0 0 0 0 0 0 0 0 0 0 0 0 0 0 0 0 0 0.04 0"/>
<feBlend mode="normal" in2="BackgroundImageFix" result="effect1_dropShadow_589_463"/>
<feBlend mode="normal" in="SourceGraphic" in2="effect1_dropShadow_589_463" result="shape"/>
</filter>
</defs>
</svg>
