<svg width="70" height="221" viewBox="0 0 70 221" fill="none" xmlns="http://www.w3.org/2000/svg">
<g style="mix-blend-mode:multiply" opacity="0.3">
<path d="M42.6333 220.721C56.2187 220.721 67.2318 217.907 67.2318 214.436C67.2318 210.965 56.2187 208.151 42.6333 208.151C29.0479 208.151 18.0347 210.965 18.0347 214.436C18.0347 217.907 29.0479 220.721 42.6333 220.721Z" fill="#BDCFD5"/>
</g>
<g style="mix-blend-mode:multiply" opacity="0.4">
<path d="M61.8776 111.739H52.1025L51.8992 109.841C53.6646 99.8619 56.6518 90.138 60.7933 80.8887C64.6051 72.9941 69.3825 65.0656 69.4502 56.307C69.4502 49.1409 66.367 42.1272 67.2479 35.0119L55.711 55.2058C56.6089 45.7865 56.558 32.2166 56.558 20.29C51.3232 28.371 46.0376 36.5366 42.7849 45.6002C42.2766 46.9893 41.8023 48.5479 41.311 50.1743C41.311 48.8077 41.3618 47.4355 41.4635 46.0576C41.7684 40.8567 42.3444 35.6557 42.8695 30.4547C45.9359 30.4547 48.494 28.354 46.7999 23.475C45.6987 20.29 49.4427 19.3752 48.0874 15.3432C47.8333 14.5809 46.2578 13.3781 46.0884 12.5818C44.9872 7.347 48.5109 2.26465 45.3938 0.723C43.293 -0.157942 41.3788 2.41713 41.04 4.70419C40.7011 6.99125 40.8536 9.63403 39.0917 11.074C38.4163 11.477 37.7759 11.9361 37.1773 12.4463C35.6696 14.1404 37.1773 16.7832 37.0587 19.0534C36.9539 20.0231 36.7204 20.9745 36.3642 21.8825C35.7987 23.2752 35.7735 24.8288 36.2937 26.239C36.8139 27.6492 37.8419 28.8143 39.1764 29.506C38.3556 36.1043 37.9314 42.7459 37.9058 49.395C33.9484 33.9515 27.3081 19.3234 18.2879 6.17806C16.8987 21.2896 17.3223 25.6774 18.4404 34.4021C19.135 39.8741 19.6263 44.9903 20.1345 49.8185C12.3246 38.5527 5.58204 29.3705 4.7858 29.6246C2.54957 48.1075 4.7858 58.0519 14.9505 73.2482C17.9491 77.7376 33.0267 88.0886 36.6522 102.607C37.0757 104.217 37.6008 107.69 38.1938 111.806H31.4173C31.1237 111.806 30.8331 111.865 30.5636 111.982C30.2942 112.099 30.0517 112.27 29.8514 112.484C29.651 112.699 29.4972 112.953 29.3993 113.23C29.3015 113.506 29.2618 113.8 29.2828 114.093L36.3811 209.726C36.4241 210.33 36.6945 210.895 37.1379 211.307C37.5813 211.719 38.1646 211.947 38.7698 211.946H54.4743C55.0813 211.947 55.6665 211.72 56.1127 211.308C56.5588 210.897 56.8329 210.331 56.8799 209.726L63.9613 114.093C63.9919 113.799 63.961 113.502 63.8707 113.221C63.7804 112.939 63.6327 112.68 63.4368 112.458C63.2409 112.237 63.0011 112.059 62.7327 111.935C62.4643 111.811 62.1731 111.744 61.8776 111.739Z" fill="#C1B5AA"/>
</g>
<path d="M39.3963 47.3619C42.649 38.2984 47.8669 30.1327 53.1694 22.0518C53.1694 36.7736 53.1694 53.9859 51.4753 62.8461C49.0866 75.2301 45.3257 90.3416 37.7021 100.489C30.1972 87.5463 34.5511 60.7624 39.3963 47.3619Z" fill="#8A9636"/>
<path d="M41.2437 93.256C40.6338 86.6828 40.007 80.1097 39.0075 73.5873C35.1279 48.057 29.2832 29.2522 14.9001 7.80469C13.5109 22.9162 13.9345 27.304 15.0526 36.0287C17.8818 58.2216 17.1872 74.6885 34.518 88.8344C36.3864 90.0744 37.9641 91.7041 39.1429 93.6117C41.6163 98.6941 39.5665 105.945 40.4474 111.264C44.598 107.639 41.8536 98.728 41.2437 93.256Z" fill="#66741F"/>
<path d="M38.4658 14.4117C34.8235 32.8607 32.8583 53.3765 36.2973 71.9271C40.0921 92.2565 47.0212 110.892 44.4292 131.95C44.192 133.847 47.3261 134.237 47.8174 132.407C51.8833 114.704 45.615 96.6104 41.5491 79.5167C38.8524 69.1548 37.7105 58.4496 38.1609 47.752C38.8047 36.7233 40.6852 25.7285 40.6174 14.6828C40.6174 13.5308 38.7877 13.2089 38.5505 14.4117H38.4658Z" fill="#66741F"/>
<path d="M39.1938 204.153C41.4851 204.629 43.843 204.692 46.1566 204.339C46.3042 204.293 46.4332 204.2 46.5247 204.075C46.6162 203.95 46.6655 203.8 46.6655 203.645C46.6655 203.49 46.6162 203.339 46.5247 203.214C46.4332 203.089 46.3042 202.997 46.1566 202.95C43.843 202.598 41.4851 202.661 39.1938 203.136C39.059 203.136 38.9297 203.19 38.8343 203.285C38.739 203.381 38.6855 203.51 38.6855 203.645C38.6855 203.78 38.739 203.909 38.8343 204.004C38.9297 204.099 39.059 204.153 39.1938 204.153Z" fill="#6D564D"/>
<path d="M39.532 85.7846C30.2144 70.5375 3.12539 30.7427 1.48209 31.2509C-0.754143 49.7337 1.48209 59.6782 11.6468 74.8744C14.6454 79.3639 29.723 89.7149 33.3484 104.234C34.6699 109.434 37.3296 133.44 38.7696 138.675C46.9522 124.631 45.292 95.2377 39.532 85.7846Z" fill="#8A9636"/>
<path d="M49.4772 61.8468L63.928 36.7061C63.0471 43.8213 66.1982 50.835 66.1304 58.0011C66.1304 66.7597 61.2852 74.6882 57.4734 82.5828C52.713 92.4256 47.3088 111.264 47.0547 125.139C39.8716 109.367 40.9728 76.6872 49.4772 61.8468Z" fill="#66741F"/>
<path d="M58.4904 113.433H28.081C27.7874 113.432 27.4967 113.492 27.2273 113.608C26.9579 113.725 26.7153 113.896 26.515 114.111C26.3146 114.325 26.1607 114.579 26.0629 114.856C25.9651 115.133 25.9254 115.427 25.9464 115.72L33.0447 211.353C33.0877 211.956 33.3581 212.521 33.8015 212.933C34.2449 213.345 34.8283 213.573 35.4335 213.572H51.1379C51.7449 213.574 52.3301 213.346 52.7763 212.934C53.2224 212.523 53.4965 211.958 53.5435 211.353L60.625 115.72C60.646 115.427 60.6063 115.133 60.5085 114.856C60.4106 114.579 60.2567 114.325 60.0563 114.111C59.856 113.896 59.6135 113.725 59.3441 113.608C59.0746 113.492 58.784 113.432 58.4904 113.433Z" fill="#7B6357"/>
<path d="M33.908 123.496C39.5831 124.399 45.3607 124.456 51.0525 123.665C51.2951 123.665 51.5278 123.569 51.6994 123.397C51.8709 123.225 51.9673 122.993 51.9673 122.75C51.9673 122.508 51.8709 122.275 51.6994 122.103C51.5278 121.932 51.2951 121.835 51.0525 121.835C45.3607 121.044 39.5831 121.101 33.908 122.005C33.7483 122.053 33.6084 122.152 33.509 122.286C33.4096 122.421 33.356 122.583 33.356 122.75C33.356 122.917 33.4096 123.08 33.509 123.214C33.6084 123.348 33.7483 123.447 33.908 123.496Z" fill="#6D564D"/>
<path d="M35.8049 135.456C41.0397 135.27 46.5456 135.897 51.7127 135.1C51.909 135.046 52.0821 134.929 52.2054 134.766C52.3287 134.604 52.3954 134.406 52.3954 134.202C52.3954 133.999 52.3287 133.801 52.2054 133.638C52.0821 133.476 51.909 133.359 51.7127 133.305C46.6303 132.508 41.0397 133.135 35.8049 132.949C35.4724 132.949 35.1535 133.081 34.9184 133.316C34.6833 133.551 34.5513 133.87 34.5513 134.202C34.5513 134.535 34.6833 134.854 34.9184 135.089C35.1535 135.324 35.4724 135.456 35.8049 135.456Z" fill="#6D564D"/>
<path d="M36.5338 149.009C41.6791 149.982 46.9476 150.119 52.1367 149.416C52.3207 149.363 52.4826 149.252 52.5979 149.099C52.7132 148.946 52.7756 148.76 52.7756 148.569C52.7756 148.377 52.7132 148.191 52.5979 148.038C52.4826 147.885 52.3207 147.774 52.1367 147.722C46.9476 147.018 41.6791 147.155 36.5338 148.128C36.4377 148.155 36.353 148.213 36.2927 148.292C36.2323 148.372 36.1997 148.469 36.1997 148.569C36.1997 148.669 36.2323 148.766 36.2927 148.845C36.353 148.925 36.4377 148.982 36.5338 149.009Z" fill="#6D564D"/>
<path d="M36.6527 161.867L42.3619 162.24C44.0428 162.539 45.7633 162.539 47.4442 162.24C47.6396 162.175 47.8094 162.049 47.9298 161.882C48.0501 161.715 48.1149 161.514 48.1149 161.308C48.1149 161.102 48.0501 160.901 47.9298 160.734C47.8094 160.567 47.6396 160.442 47.4442 160.376C45.7633 160.078 44.0428 160.078 42.3619 160.376L36.6527 160.749C36.4999 160.749 36.3534 160.81 36.2454 160.918C36.1374 161.026 36.0767 161.172 36.0767 161.325C36.0767 161.478 36.1374 161.624 36.2454 161.732C36.3534 161.84 36.4999 161.901 36.6527 161.901V161.867Z" fill="#6D564D"/>
<path d="M38.3466 176.115C42.1905 176.786 46.1128 176.883 49.9852 176.403C50.1449 176.354 50.2848 176.256 50.3842 176.121C50.4836 175.987 50.5372 175.825 50.5372 175.658C50.5372 175.491 50.4836 175.328 50.3842 175.194C50.2848 175.06 50.1449 174.961 49.9852 174.912C46.1128 174.432 42.1905 174.529 38.3466 175.2C38.2253 175.2 38.1089 175.248 38.0232 175.334C37.9374 175.42 37.8892 175.536 37.8892 175.658C37.8892 175.779 37.9374 175.895 38.0232 175.981C38.1089 176.067 38.2253 176.115 38.3466 176.115Z" fill="#6D564D"/>
<path d="M38.6167 190.244C40.4784 190.623 42.3756 190.799 44.2751 190.769C46.1894 191.025 48.1339 190.939 50.0182 190.515C50.2023 190.463 50.3642 190.351 50.4795 190.199C50.5948 190.046 50.6571 189.86 50.6571 189.668C50.6571 189.477 50.5948 189.29 50.4795 189.138C50.3642 188.985 50.2023 188.874 50.0182 188.821C48.1339 188.397 46.1894 188.311 44.2751 188.567C42.3756 188.538 40.4784 188.714 38.6167 189.092C38.4877 189.124 38.3731 189.198 38.2911 189.302C38.2091 189.406 38.1646 189.535 38.1646 189.668C38.1646 189.801 38.2091 189.93 38.2911 190.034C38.3731 190.139 38.4877 190.213 38.6167 190.244Z" fill="#6D564D"/>
<path d="M32.9757 23.5087C33.3319 22.6007 33.5654 21.6492 33.6702 20.6795C33.8227 18.4094 32.2811 15.7666 33.7888 14.0724C34.3874 13.5622 35.0278 13.1032 35.7032 12.7002C37.3973 11.2602 37.3974 8.60043 37.6515 6.33031C37.9056 4.06019 39.9046 1.46818 42.0053 2.34912C45.1224 3.95854 41.5987 9.04089 42.6999 14.2079C42.8693 15.0042 44.394 16.207 44.699 16.9694C46.0543 21.0014 42.3102 21.9162 43.4114 25.1011C47.2401 36.079 29.6722 33.1821 32.9757 23.5087Z" fill="#E29D36"/>
</svg>
