<svg width="130" height="254" viewBox="0 0 130 254" fill="none" xmlns="http://www.w3.org/2000/svg">
<g style="mix-blend-mode:multiply" opacity="0.3">
<path d="M63.9179 253.94C88.0479 253.94 107.609 249.859 107.609 244.825C107.609 239.792 88.0479 235.711 63.9179 235.711C39.7878 235.711 20.2266 239.792 20.2266 244.825C20.2266 249.859 39.7878 253.94 63.9179 253.94Z" fill="#BDCFD5"/>
</g>
<path d="M66.6468 144.127C69.6284 137.096 74.9988 131.404 80.3183 125.915C85.2313 120.833 90.3814 115.751 96.9715 113.142C103.562 110.533 111.964 111.447 116.386 116.903C120.554 122.087 119.995 129.439 120.842 136.029C121.83 143.608 124.903 150.763 129.719 156.697C121.248 156.697 114.624 148.904 111.609 140.942C110.594 137.485 109.19 134.155 107.424 131.015C105.425 128.033 101.969 125.661 98.4115 126.22C96.4931 126.714 94.7063 127.622 93.1767 128.88L79.268 138.418C76.5235 140.315 73.6096 142.399 72.4915 145.533C71.8326 148.109 71.7401 150.796 72.2204 153.411C72.9988 161.668 72.2989 169.998 70.1536 178.009C58.82 173.181 63.2585 152.445 66.6468 144.127Z" fill="#8A9636"/>
<path d="M63.3767 142.771C65.7146 134.623 71.0849 127.761 75.7776 120.748C88.4102 101.675 96.5221 79.9694 99.4953 57.2861C88.06 75.752 74.7781 93.3031 65.9687 113.124C57.1593 132.945 53.1781 156.257 61.259 176.433C60.2256 167.031 60.7677 151.869 63.3767 142.771Z" fill="#8A9636"/>
<path d="M54.33 127.846C43.6909 109.092 31.273 90.9483 28.105 69.5854C27.4782 69.0603 26.665 69.992 26.4109 70.7544C22.2924 82.6054 22.6175 95.5487 27.3257 107.178C30.985 116.157 37.1347 123.916 43.7756 130.98C45.8012 132.945 47.5972 135.133 49.129 137.503C52.5173 143.33 56.634 149.649 56.9897 156.392C57.3286 162.66 62.8344 172.029 67.561 176.4C67.1883 166.709 64.1558 145.194 54.33 127.846Z" fill="#8A9636"/>
<path d="M63.8007 174.757C71.9833 146.465 61.3781 118.851 58.1763 90.6605C56.4822 75.4135 61.0224 60.7254 59.7349 45.58C58.6218 30.601 55.936 15.7806 51.7217 1.36357C51.4506 0.51651 50.0276 0.618165 50.1292 1.58381C50.8577 16.3735 56.0586 30.7734 57.0412 45.6308C57.9899 60.1494 52.6534 74.4308 53.2803 89.2544C54.4662 117.597 66.3419 145.397 60.4972 173.96C60.3759 174.41 60.438 174.889 60.67 175.292C60.9019 175.696 61.2846 175.991 61.7339 176.112C62.1832 176.233 62.6623 176.171 63.0658 175.939C63.4693 175.707 63.7641 175.324 63.8854 174.875L63.8007 174.757Z" fill="#8A9636"/>
<path d="M66.6458 64.5035C69.6444 61.2678 73.1851 58.5233 75.9634 55.0673C78.4216 51.7306 80.5065 48.1346 82.1808 44.3435L90.6514 27.0127C93.0054 34.065 93.2862 41.6447 91.4604 48.8518C89.6346 56.0589 85.7789 62.5906 80.3512 67.6715C77.5051 70.2466 74.3032 72.3812 71.3893 74.8885C62.7324 82.3595 57.8364 92.6598 55.7865 103.688C55.4307 89.6442 56.803 75.1765 66.6458 64.5035Z" fill="#8A9636"/>
<path d="M54.5503 87.6109C36.7112 69.4669 43.115 48.985 27.1225 29.4857C15.2637 20.3544 11.0114 14.3403 0.0166016 15.5092C10.935 24.6503 20.1715 35.6297 27.3088 47.9516C28.6676 50.0723 29.6691 52.4016 30.2735 54.8466C30.5821 57.4831 30.6784 60.1401 30.5615 62.792C31.1714 82.3421 50.4674 96.488 56.2105 114.513C62.2754 106.992 60.4458 93.6081 54.5503 87.6109Z" fill="#8A9636"/>
<path d="M66.0879 30.3836C67.3691 26.2653 69.3772 22.4097 72.0173 18.9992C76.6083 13.6966 83.8761 11.1893 88.0436 5.54785C84.0116 26.4702 64.614 41.1243 57.685 61.3012C56.1942 51.6617 62.8182 39.0914 66.0879 30.3836Z" fill="#8A9636"/>
<path d="M75.6256 156.426H50.8915C44.6012 156.426 38.5685 158.925 34.1206 163.373C29.6726 167.821 27.1738 173.854 27.1738 180.144L39.9305 241.251C40.1424 242.341 40.7261 243.323 41.582 244.031C42.4378 244.739 43.5128 245.127 44.6232 245.13H81.8938C82.9948 245.13 84.0622 244.751 84.9167 244.057C85.7713 243.363 86.3609 242.396 86.5865 241.318L99.3432 180.212C99.3522 177.091 98.7453 174 97.5573 171.114C96.3694 168.229 94.6238 165.606 92.4205 163.397C90.2172 161.187 87.5996 159.434 84.7176 158.238C81.8356 157.042 78.746 156.426 75.6256 156.426Z" fill="#7B6357"/>
<path d="M41.2345 165.371C56.1427 165.727 71.7286 166.828 86.5521 165.371C86.7004 165.371 86.8426 165.312 86.9474 165.207C87.0523 165.102 87.1112 164.96 87.1112 164.812C87.1112 164.664 87.0523 164.522 86.9474 164.417C86.8426 164.312 86.7004 164.253 86.5521 164.253C71.7116 162.864 56.058 163.965 41.2345 164.253C41.1042 164.253 40.9792 164.305 40.8871 164.397C40.7949 164.489 40.7432 164.614 40.7432 164.744C40.7432 164.875 40.7949 164.999 40.8871 165.092C40.9792 165.184 41.1042 165.236 41.2345 165.236V165.371Z" fill="#6D564D"/>
<path d="M36.5752 189.868C54.5159 190.427 72.8632 191.291 90.787 189.987C90.9217 189.987 91.051 189.933 91.1463 189.838C91.2416 189.742 91.2952 189.613 91.2952 189.478C91.2952 189.344 91.2416 189.214 91.1463 189.119C91.051 189.024 90.9217 188.97 90.787 188.97C72.8632 187.666 54.5159 188.53 36.5752 189.089C36.4719 189.089 36.3727 189.13 36.2997 189.203C36.2266 189.276 36.1855 189.375 36.1855 189.478C36.1855 189.582 36.2266 189.681 36.2997 189.754C36.3727 189.827 36.4719 189.868 36.5752 189.868Z" fill="#6D564D"/>
<path d="M42.9287 202.591C55.4144 202.913 68.1542 203.54 80.6229 202.591C80.7532 202.591 80.8781 202.539 80.9703 202.447C81.0624 202.355 81.1142 202.23 81.1142 202.1C81.1142 201.969 81.0624 201.845 80.9703 201.752C80.8781 201.66 80.7532 201.608 80.6229 201.608C68.1542 200.711 55.4313 201.337 42.9287 201.608C42.8119 201.608 42.6999 201.655 42.6173 201.738C42.5347 201.82 42.4883 201.932 42.4883 202.049C42.4883 202.166 42.5347 202.278 42.6173 202.36C42.6999 202.443 42.8119 202.489 42.9287 202.489V202.591Z" fill="#6D564D"/>
<path d="M43.7751 214.907C56.7481 215.797 69.7668 215.797 82.7398 214.907C82.8432 214.907 82.9423 214.866 83.0154 214.793C83.0884 214.72 83.1295 214.621 83.1295 214.518C83.1295 214.414 83.0884 214.315 83.0154 214.242C82.9423 214.169 82.8432 214.128 82.7398 214.128C69.7668 213.239 56.7481 213.239 43.7751 214.128C43.6493 214.128 43.5287 214.178 43.4397 214.267C43.3508 214.356 43.3008 214.477 43.3008 214.602C43.3008 214.728 43.3508 214.849 43.4397 214.938C43.5287 215.027 43.6493 215.077 43.7751 215.077V214.907Z" fill="#6D564D"/>
<path d="M45.8938 225.749C58.163 226.483 70.4622 226.574 82.7409 226.02C82.8936 226.02 83.0401 225.96 83.1482 225.852C83.2562 225.744 83.3169 225.597 83.3169 225.445C83.3169 225.292 83.2562 225.145 83.1482 225.037C83.0401 224.929 82.8936 224.869 82.7409 224.869C70.4622 224.315 58.163 224.406 45.8938 225.14C45.8129 225.14 45.7354 225.172 45.6782 225.229C45.621 225.286 45.5889 225.364 45.5889 225.445C45.5889 225.525 45.621 225.603 45.6782 225.66C45.7354 225.717 45.8129 225.749 45.8938 225.749Z" fill="#6D564D"/>
<path d="M45.4704 236.829C55.8893 237.913 66.3926 237.913 76.8115 236.829C76.9329 236.829 77.0492 236.781 77.135 236.695C77.2208 236.609 77.2689 236.493 77.2689 236.372C77.2689 236.25 77.2208 236.134 77.135 236.048C77.0492 235.962 76.9329 235.914 76.8115 235.914C66.3926 234.83 55.8893 234.83 45.4704 235.914C45.3715 235.914 45.2767 235.954 45.2068 236.023C45.1369 236.093 45.0977 236.188 45.0977 236.287C45.0977 236.386 45.1369 236.481 45.2068 236.551C45.2767 236.62 45.3715 236.66 45.4704 236.66V236.829Z" fill="#6D564D"/>
<path d="M35.3043 176.959C44.5542 177.399 53.7871 177.433 63.0539 177.45C72.3207 177.467 81.6892 178.365 90.7866 177.247C90.9214 177.247 91.0507 177.193 91.146 177.098C91.2413 177.003 91.2949 176.873 91.2949 176.739C91.2949 176.604 91.2413 176.475 91.146 176.379C91.0507 176.284 90.9214 176.23 90.7866 176.23C81.74 175.112 72.1513 175.993 63.0539 176.027C53.9565 176.061 44.5542 176.027 35.3043 176.535C35.2583 176.549 35.2178 176.576 35.1889 176.614C35.1601 176.653 35.1445 176.699 35.1445 176.747C35.1445 176.795 35.1601 176.842 35.1889 176.88C35.2178 176.918 35.2583 176.946 35.3043 176.959Z" fill="#6D564D"/>
</svg>
