<svg width="122" height="122" viewBox="0 0 122 122" fill="none" xmlns="http://www.w3.org/2000/svg">
<circle cx="61.1916" cy="58.0681" r="57.2287" fill="#82B2C2"/>
<path d="M121.611 61.259C121.611 72.7124 118.355 83.93 112.224 93.604C106.092 103.278 97.3373 111.01 86.9795 115.899C76.6217 120.787 65.0878 122.631 53.7222 121.215C42.3566 119.799 31.6275 115.182 22.7856 107.902L61.1911 61.259H121.611Z" fill="#076787"/>
<path d="M66.1525 96.3387C65.4283 96.3387 64.7829 96.2143 64.216 95.9656C63.6528 95.7169 63.2048 95.3713 62.872 94.9288C62.5428 94.4827 62.3636 93.9652 62.3344 93.3764H63.7168C63.7461 93.7384 63.8704 94.0511 64.0898 94.3144C64.3093 94.5741 64.5963 94.7752 64.9511 94.9179C65.3058 95.0605 65.699 95.1318 66.1305 95.1318C66.6133 95.1318 67.0411 95.0477 67.4142 94.8795C67.7872 94.7112 68.0798 94.4772 68.2919 94.1773C68.504 93.8774 68.6101 93.53 68.6101 93.135C68.6101 92.7217 68.5077 92.3578 68.3029 92.0433C68.0981 91.7252 67.7982 91.4765 67.4032 91.2973C67.0082 91.1181 66.5255 91.0285 65.955 91.0285H65.0553V89.8216H65.955C66.4011 89.8216 66.7925 89.7412 67.1289 89.5802C67.469 89.4193 67.7342 89.1926 67.9243 88.9C68.1182 88.6074 68.2151 88.2637 68.2151 87.8687C68.2151 87.4884 68.131 87.1574 67.9627 86.8758C67.7945 86.5942 67.5568 86.3748 67.2496 86.2175C66.9461 86.0602 66.5877 85.9816 66.1744 85.9816C65.7867 85.9816 65.421 86.0529 65.0773 86.1956C64.7371 86.3345 64.4592 86.5375 64.2434 86.8045C64.0277 87.0678 63.9106 87.386 63.8923 87.759H62.5758C62.5977 87.1702 62.7751 86.6545 63.1079 86.212C63.4407 85.7658 63.8759 85.4184 64.4135 85.1697C64.9547 84.921 65.549 84.7967 66.1963 84.7967C66.8912 84.7967 67.4873 84.9375 67.9847 85.2191C68.4821 85.497 68.8642 85.8646 69.1312 86.3217C69.3982 86.7789 69.5317 87.2726 69.5317 87.8029C69.5317 88.4356 69.3653 88.975 69.0325 89.4212C68.7033 89.8673 68.2553 90.1764 67.6885 90.3482V90.436C68.3979 90.553 68.952 90.8548 69.3506 91.3412C69.7493 91.8239 69.9486 92.4219 69.9486 93.135C69.9486 93.7457 69.7822 94.2943 69.4494 94.7807C69.1202 95.2635 68.6704 95.6438 68.0999 95.9217C67.5294 96.1997 66.8802 96.3387 66.1525 96.3387ZM75.9884 96.3387C75.2642 96.3387 74.6188 96.2143 74.0519 95.9656C73.4887 95.7169 73.0407 95.3713 72.7079 94.9288C72.3788 94.4827 72.1996 93.9652 72.1703 93.3764H73.5527C73.582 93.7384 73.7063 94.0511 73.9257 94.3144C74.1452 94.5741 74.4322 94.7752 74.787 94.9179C75.1417 95.0605 75.5349 95.1318 75.9664 95.1318C76.4492 95.1318 76.8771 95.0477 77.2501 94.8795C77.6231 94.7112 77.9157 94.4772 78.1278 94.1773C78.3399 93.8774 78.446 93.53 78.446 93.135C78.446 92.7217 78.3436 92.3578 78.1388 92.0433C77.934 91.7252 77.6341 91.4765 77.2391 91.2973C76.8441 91.1181 76.3614 91.0285 75.7909 91.0285H74.8912V89.8216H75.7909C76.2371 89.8216 76.6284 89.7412 76.9648 89.5802C77.3049 89.4193 77.5701 89.1926 77.7603 88.9C77.9541 88.6074 78.051 88.2637 78.051 87.8687C78.051 87.4884 77.9669 87.1574 77.7987 86.8758C77.6304 86.5942 77.3927 86.3748 77.0855 86.2175C76.782 86.0602 76.4236 85.9816 76.0103 85.9816C75.6226 85.9816 75.2569 86.0529 74.9132 86.1956C74.573 86.3345 74.2951 86.5375 74.0793 86.8045C73.8636 87.0678 73.7465 87.386 73.7282 87.759H72.4117C72.4336 87.1702 72.611 86.6545 72.9438 86.212C73.2766 85.7658 73.7118 85.4184 74.2494 85.1697C74.7906 84.921 75.3849 84.7967 76.0323 84.7967C76.7271 84.7967 77.3232 84.9375 77.8206 85.2191C78.318 85.497 78.7001 85.8646 78.9671 86.3217C79.2341 86.7789 79.3676 87.2726 79.3676 87.8029C79.3676 88.4356 79.2012 88.975 78.8684 89.4212C78.5392 89.8673 78.0912 90.1764 77.5244 90.3482V90.436C78.2339 90.553 78.7879 90.8548 79.1865 91.3412C79.5852 91.8239 79.7845 92.4219 79.7845 93.135C79.7845 93.7457 79.6181 94.2943 79.2853 94.7807C78.9561 95.2635 78.5063 95.6438 77.9358 95.9217C77.3653 96.1997 76.7161 96.3387 75.9884 96.3387ZM87.7552 94.0785V93.4861C87.7552 93.0765 87.8394 92.7016 88.0076 92.3615C88.1795 92.0177 88.4282 91.7434 88.7537 91.5386C89.0828 91.3302 89.4814 91.226 89.9495 91.226C90.425 91.226 90.8236 91.3302 91.1454 91.5386C91.4673 91.7434 91.7105 92.0177 91.875 92.3615C92.0396 92.7016 92.1219 93.0765 92.1219 93.4861V94.0785C92.1219 94.4881 92.0378 94.8648 91.8695 95.2086C91.705 95.5487 91.4599 95.823 91.1345 96.0315C90.8126 96.2363 90.4177 96.3387 89.9495 96.3387C89.4741 96.3387 89.0737 96.2363 88.7482 96.0315C88.4227 95.823 88.1758 95.5487 88.0076 95.2086C87.8394 94.8648 87.7552 94.4881 87.7552 94.0785ZM88.8743 93.4861V94.0785C88.8743 94.4187 88.9548 94.724 89.1157 94.9947C89.2766 95.2616 89.5546 95.3951 89.9495 95.3951C90.3335 95.3951 90.6042 95.2616 90.7614 94.9947C90.9223 94.724 91.0028 94.4187 91.0028 94.0785V93.4861C91.0028 93.146 90.926 92.8424 90.7724 92.5755C90.6188 92.3048 90.3445 92.1695 89.9495 92.1695C89.5655 92.1695 89.2894 92.3048 89.1212 92.5755C88.9566 92.8424 88.8743 93.146 88.8743 93.4861ZM82.1598 87.6493V87.0568C82.1598 86.6472 82.2439 86.2724 82.4122 85.9322C82.584 85.5885 82.8327 85.3142 83.1582 85.1094C83.4874 84.9009 83.886 84.7967 84.3541 84.7967C84.8295 84.7967 85.2282 84.9009 85.55 85.1094C85.8718 85.3142 86.115 85.5885 86.2796 85.9322C86.4442 86.2724 86.5264 86.6472 86.5264 87.0568V87.6493C86.5264 88.0589 86.4423 88.4356 86.2741 88.7793C86.1095 89.1194 85.8645 89.3937 85.539 89.6022C85.2172 89.807 84.8222 89.9094 84.3541 89.9094C83.8787 89.9094 83.4782 89.807 83.1527 89.6022C82.8272 89.3937 82.5804 89.1194 82.4122 88.7793C82.2439 88.4356 82.1598 88.0589 82.1598 87.6493ZM83.2789 87.0568V87.6493C83.2789 87.9894 83.3594 88.2948 83.5203 88.5654C83.6812 88.8324 83.9591 88.9658 84.3541 88.9658C84.7381 88.9658 85.0087 88.8324 85.166 88.5654C85.3269 88.2948 85.4074 87.9894 85.4074 87.6493V87.0568C85.4074 86.7167 85.3306 86.4132 85.177 86.1462C85.0234 85.8755 84.7491 85.7402 84.3541 85.7402C83.9701 85.7402 83.694 85.8755 83.5258 86.1462C83.3612 86.4132 83.2789 86.7167 83.2789 87.0568ZM82.5767 96.1851L90.3006 84.9503H91.5514L83.8275 96.1851H82.5767Z" fill="white"/>
</svg>
