<svg width="314" height="181" viewBox="0 0 314 181" fill="none" xmlns="http://www.w3.org/2000/svg">
<g filter="url(#filter0_dd_589_426)">
<rect x="16" y="9.11865" width="282" height="141.281" rx="4" fill="white"/>
<circle cx="215.819" cy="58.0885" r="6.75449" fill="#149973"/>
<path d="M212.604 57.7161L214.533 60.0184L219.036 56.1587" stroke="white" stroke-width="1.68862" stroke-linecap="round" stroke-linejoin="round"/>
<path d="M72.428 76.6779L36.8262 71.5977V132.951H179.233V82.5396H159.769L111.69 76.6779H72.428Z" fill="url(#paint0_linear_589_426)"/>
<path d="M40.2068 38.6338L38.9932 36.4904H38.4731V38.6338H37.3699V33.1334H39.4345C39.8601 33.1334 40.2226 33.2096 40.522 33.3619C40.8215 33.509 41.0447 33.7113 41.1918 33.9687C41.3442 34.2209 41.4204 34.5045 41.4204 34.8198C41.4204 35.1822 41.3153 35.5106 41.1051 35.8048C40.895 36.0937 40.5824 36.2934 40.1674 36.4037L41.4834 38.6338H40.2068ZM38.4731 35.6629H39.3951C39.6946 35.6629 39.9179 35.592 40.065 35.4502C40.212 35.3031 40.2856 35.1008 40.2856 34.8434C40.2856 34.5912 40.212 34.3968 40.065 34.2603C39.9179 34.1184 39.6946 34.0475 39.3951 34.0475H38.4731V35.6629ZM42.1345 36.4352C42.1345 35.9939 42.2212 35.6025 42.3945 35.261C42.5732 34.9196 42.8122 34.6569 43.1116 34.473C43.4164 34.2892 43.7552 34.1972 44.1282 34.1972C44.4539 34.1972 44.7376 34.2629 44.9793 34.3942C45.2262 34.5256 45.4232 34.691 45.5703 34.8907V34.2681H46.6814V38.6338H45.5703V37.9955C45.4284 38.2004 45.2314 38.3711 44.9793 38.5077C44.7324 38.639 44.446 38.7047 44.1203 38.7047C43.7526 38.7047 43.4164 38.6101 43.1116 38.421C42.8122 38.2319 42.5732 37.9666 42.3945 37.6251C42.2212 37.2784 42.1345 36.8817 42.1345 36.4352ZM45.5703 36.451C45.5703 36.183 45.5177 35.9545 45.4127 35.7654C45.3076 35.571 45.1658 35.4239 44.9871 35.3241C44.8085 35.219 44.6168 35.1665 44.4119 35.1665C44.207 35.1665 44.0179 35.2164 43.8445 35.3162C43.6711 35.416 43.5293 35.5631 43.419 35.7575C43.3139 35.9466 43.2614 36.1725 43.2614 36.4352C43.2614 36.6979 43.3139 36.929 43.419 37.1287C43.5293 37.323 43.6711 37.4728 43.8445 37.5778C44.0231 37.6829 44.2123 37.7354 44.4119 37.7354C44.6168 37.7354 44.8085 37.6855 44.9871 37.5857C45.1658 37.4806 45.3076 37.3335 45.4127 37.1444C45.5177 36.95 45.5703 36.7189 45.5703 36.451ZM50.1781 34.2051C50.6982 34.2051 51.1185 34.3706 51.439 34.7015C51.7594 35.0273 51.9197 35.4843 51.9197 36.0727V38.6338H50.8164V36.2224C50.8164 35.8757 50.7297 35.6104 50.5564 35.4265C50.383 35.2374 50.1466 35.1428 49.8472 35.1428C49.5425 35.1428 49.3008 35.2374 49.1222 35.4265C48.9488 35.6104 48.8621 35.8757 48.8621 36.2224V38.6338H47.7589V34.2681H48.8621V34.8119C49.0092 34.6227 49.1957 34.4756 49.4216 34.3706C49.6528 34.2603 49.9049 34.2051 50.1781 34.2051ZM54.6788 34.1972C55.0045 34.1972 55.2908 34.2629 55.5377 34.3942C55.7847 34.5203 55.979 34.6858 56.1209 34.8907V34.2681H57.232V38.6653C57.232 39.0698 57.1506 39.4297 56.9877 39.7449C56.8248 40.0654 56.5806 40.3175 56.2548 40.5014C55.9291 40.6905 55.5351 40.7851 55.0728 40.7851C54.4529 40.7851 53.9433 40.6406 53.544 40.3517C53.15 40.0627 52.9268 39.6687 52.8742 39.1696H53.9696C54.0274 39.3693 54.1508 39.5269 54.3399 39.6425C54.5343 39.7633 54.7681 39.8237 55.0413 39.8237C55.3617 39.8237 55.6218 39.7265 55.8214 39.5321C56.0211 39.343 56.1209 39.0541 56.1209 38.6653V37.9876C55.979 38.1925 55.782 38.3632 55.5299 38.4998C55.2829 38.6364 54.9993 38.7047 54.6788 38.7047C54.311 38.7047 53.9748 38.6101 53.6701 38.421C53.3654 38.2319 53.1238 37.9666 52.9451 37.6251C52.7718 37.2784 52.6851 36.8817 52.6851 36.4352C52.6851 35.9939 52.7718 35.6025 52.9451 35.261C53.1238 34.9196 53.3628 34.6569 53.6622 34.473C53.9669 34.2892 54.3058 34.1972 54.6788 34.1972ZM56.1209 36.451C56.1209 36.183 56.0683 35.9545 55.9633 35.7654C55.8582 35.571 55.7164 35.4239 55.5377 35.3241C55.3591 35.219 55.1674 35.1665 54.9625 35.1665C54.7576 35.1665 54.5685 35.2164 54.3951 35.3162C54.2217 35.416 54.0799 35.5631 53.9696 35.7575C53.8645 35.9466 53.812 36.1725 53.812 36.4352C53.812 36.6979 53.8645 36.929 53.9696 37.1287C54.0799 37.323 54.2217 37.4728 54.3951 37.5778C54.5737 37.6829 54.7628 37.7354 54.9625 37.7354C55.1674 37.7354 55.3591 37.6855 55.5377 37.5857C55.7164 37.4806 55.8582 37.3335 55.9633 37.1444C56.0683 36.95 56.1209 36.7189 56.1209 36.451ZM62.3678 36.3564C62.3678 36.514 62.3573 36.6558 62.3363 36.7819H59.1448C59.1711 37.0971 59.2814 37.3441 59.4758 37.5227C59.6701 37.7013 59.9092 37.7906 60.1929 37.7906C60.6026 37.7906 60.8942 37.6146 61.0676 37.2626H62.2575C62.1314 37.6829 61.8897 38.0296 61.5325 38.3028C61.1753 38.5707 60.7366 38.7047 60.2165 38.7047C59.7962 38.7047 59.418 38.6128 59.0818 38.4289C58.7508 38.2398 58.4907 37.9745 58.3016 37.633C58.1177 37.2915 58.0258 36.8975 58.0258 36.451C58.0258 35.9992 58.1177 35.6025 58.3016 35.261C58.4855 34.9196 58.7429 34.6569 59.0739 34.473C59.4048 34.2892 59.7857 34.1972 60.2165 34.1972C60.6315 34.1972 61.0019 34.2865 61.3276 34.4651C61.6586 34.6438 61.9134 34.8986 62.092 35.2295C62.2759 35.5552 62.3678 35.9309 62.3678 36.3564ZM61.2252 36.0412C61.2199 35.7575 61.1175 35.5316 60.9179 35.3635C60.7182 35.1901 60.4739 35.1034 60.185 35.1034C59.9118 35.1034 59.6807 35.1875 59.4915 35.3556C59.3077 35.5185 59.1947 35.747 59.1527 36.0412H61.2252ZM66.9893 38.7047C66.569 38.7047 66.1908 38.6128 65.8546 38.4289C65.5184 38.2398 65.253 37.9745 65.0587 37.633C64.8695 37.2915 64.775 36.8975 64.775 36.451C64.775 36.0044 64.8722 35.6104 65.0666 35.2689C65.2662 34.9274 65.5367 34.6648 65.8782 34.4809C66.2197 34.2918 66.6006 34.1972 67.0208 34.1972C67.4411 34.1972 67.822 34.2918 68.1635 34.4809C68.505 34.6648 68.7729 34.9274 68.9673 35.2689C69.1669 35.6104 69.2667 36.0044 69.2667 36.451C69.2667 36.8975 69.1643 37.2915 68.9594 37.633C68.7598 37.9745 68.4866 38.2398 68.1398 38.4289C67.7984 38.6128 67.4149 38.7047 66.9893 38.7047ZM66.9893 37.7433C67.189 37.7433 67.3755 37.696 67.5488 37.6015C67.7274 37.5017 67.8693 37.3546 67.9744 37.1602C68.0794 36.9658 68.132 36.7294 68.132 36.451C68.132 36.0359 68.0216 35.7181 67.801 35.4975C67.5856 35.2716 67.3203 35.1586 67.0051 35.1586C66.6899 35.1586 66.4246 35.2716 66.2092 35.4975C65.999 35.7181 65.894 36.0359 65.894 36.451C65.894 36.866 65.9964 37.1865 66.2013 37.4124C66.4114 37.633 66.6741 37.7433 66.9893 37.7433ZM72.0776 35.1744H71.3132V38.6338H70.1942V35.1744H69.6977V34.2681H70.1942V34.0475C70.1942 33.5116 70.3465 33.1176 70.6512 32.8655C70.9559 32.6133 71.4156 32.4951 72.0303 32.5108V33.4407C71.7624 33.4355 71.5759 33.4801 71.4708 33.5747C71.3657 33.6692 71.3132 33.84 71.3132 34.0869V34.2681H72.0776V35.1744ZM80.6671 33.1334V38.6338H79.5638V35.0562L78.0902 38.6338H77.2549L75.7735 35.0562V38.6338H74.6702V33.1334H75.9232L77.6726 37.2232L79.422 33.1334H80.6671ZM83.6964 38.7047C83.2761 38.7047 82.8978 38.6128 82.5616 38.4289C82.2254 38.2398 81.9601 37.9745 81.7657 37.633C81.5766 37.2915 81.482 36.8975 81.482 36.451C81.482 36.0044 81.5792 35.6104 81.7736 35.2689C81.9732 34.9274 82.2438 34.6648 82.5852 34.4809C82.9267 34.2918 83.3076 34.1972 83.7279 34.1972C84.1482 34.1972 84.529 34.2918 84.8705 34.4809C85.212 34.6648 85.4799 34.9274 85.6743 35.2689C85.8739 35.6104 85.9737 36.0044 85.9737 36.451C85.9737 36.8975 85.8713 37.2915 85.6664 37.633C85.4668 37.9745 85.1936 38.2398 84.8469 38.4289C84.5054 38.6128 84.1219 38.7047 83.6964 38.7047ZM83.6964 37.7433C83.896 37.7433 84.0825 37.696 84.2559 37.6015C84.4345 37.5017 84.5763 37.3546 84.6814 37.1602C84.7865 36.9658 84.839 36.7294 84.839 36.451C84.839 36.0359 84.7287 35.7181 84.508 35.4975C84.2926 35.2716 84.0273 35.1586 83.7121 35.1586C83.3969 35.1586 83.1316 35.2716 82.9162 35.4975C82.7061 35.7181 82.601 36.0359 82.601 36.451C82.601 36.866 82.7034 37.1865 82.9083 37.4124C83.1185 37.633 83.3812 37.7433 83.6964 37.7433ZM88.0675 35.1744V37.2863C88.0675 37.4334 88.1016 37.5411 88.1699 37.6094C88.2435 37.6724 88.3643 37.7039 88.5324 37.7039H89.0446V38.6338H88.3512C87.4213 38.6338 86.9564 38.182 86.9564 37.2784V35.1744H86.4363V34.2681H86.9564V33.1885H88.0675V34.2681H89.0446V35.1744H88.0675ZM90.3976 33.748C90.2033 33.748 90.0404 33.6876 89.9091 33.5668C89.783 33.4407 89.7199 33.2857 89.7199 33.1019C89.7199 32.918 89.783 32.7656 89.9091 32.6448C90.0404 32.5187 90.2033 32.4557 90.3976 32.4557C90.592 32.4557 90.7523 32.5187 90.8783 32.6448C91.0097 32.7656 91.0753 32.918 91.0753 33.1019C91.0753 33.2857 91.0097 33.4407 90.8783 33.5668C90.7523 33.6876 90.592 33.748 90.3976 33.748ZM90.9414 34.2681V38.6338H89.8381V34.2681H90.9414ZM93.9699 38.7047C93.5496 38.7047 93.1714 38.6128 92.8352 38.4289C92.4989 38.2398 92.2336 37.9745 92.0393 37.633C91.8501 37.2915 91.7556 36.8975 91.7556 36.451C91.7556 36.0044 91.8528 35.6104 92.0471 35.2689C92.2468 34.9274 92.5173 34.6648 92.8588 34.4809C93.2003 34.2918 93.5812 34.1972 94.0014 34.1972C94.4217 34.1972 94.8026 34.2918 95.1441 34.4809C95.4855 34.6648 95.7535 34.9274 95.9479 35.2689C96.1475 35.6104 96.2473 36.0044 96.2473 36.451C96.2473 36.8975 96.1449 37.2915 95.94 37.633C95.7403 37.9745 95.4672 38.2398 95.1204 38.4289C94.779 38.6128 94.3954 38.7047 93.9699 38.7047ZM93.9699 37.7433C94.1695 37.7433 94.356 37.696 94.5294 37.6015C94.708 37.5017 94.8499 37.3546 94.9549 37.1602C95.06 36.9658 95.1125 36.7294 95.1125 36.451C95.1125 36.0359 95.0022 35.7181 94.7816 35.4975C94.5662 35.2716 94.3009 35.1586 93.9857 35.1586C93.6705 35.1586 93.4052 35.2716 93.1898 35.4975C92.9796 35.7181 92.8746 36.0359 92.8746 36.451C92.8746 36.866 92.977 37.1865 93.1819 37.4124C93.392 37.633 93.6547 37.7433 93.9699 37.7433ZM99.4758 34.2051C99.9959 34.2051 100.416 34.3706 100.737 34.7015C101.057 35.0273 101.217 35.4843 101.217 36.0727V38.6338H100.114V36.2224C100.114 35.8757 100.027 35.6104 99.8541 35.4265C99.6807 35.2374 99.4443 35.1428 99.1448 35.1428C98.8401 35.1428 98.5985 35.2374 98.4198 35.4265C98.2465 35.6104 98.1598 35.8757 98.1598 36.2224V38.6338H97.0566V34.2681H98.1598V34.8119C98.3069 34.6227 98.4934 34.4756 98.7193 34.3706C98.9504 34.2603 99.2026 34.2051 99.4758 34.2051Z" fill="black"/>
<path d="M211.509 38.689C211.126 38.689 210.779 38.6233 210.469 38.4919C210.164 38.3606 209.923 38.1715 209.744 37.9246C209.565 37.6777 209.474 37.3861 209.468 37.0499H210.65C210.666 37.2758 210.745 37.4544 210.887 37.5857C211.034 37.7171 211.233 37.7827 211.486 37.7827C211.743 37.7827 211.945 37.7223 212.092 37.6015C212.24 37.4754 212.313 37.3125 212.313 37.1129C212.313 36.95 212.263 36.8161 212.163 36.711C212.064 36.6059 211.937 36.5245 211.785 36.4667C211.638 36.4037 211.433 36.3354 211.17 36.2618C210.813 36.1568 210.522 36.0543 210.296 35.9545C210.075 35.8494 209.883 35.6945 209.72 35.4896C209.563 35.2794 209.484 35.001 209.484 34.6543C209.484 34.3286 209.565 34.0449 209.728 33.8032C209.891 33.5615 210.12 33.3777 210.414 33.2516C210.708 33.1202 211.044 33.0546 211.423 33.0546C211.99 33.0546 212.45 33.1938 212.802 33.4722C213.159 33.7454 213.356 34.1289 213.393 34.6227H212.179C212.169 34.4336 212.087 34.2786 211.935 34.1578C211.788 34.0317 211.591 33.9687 211.344 33.9687C211.128 33.9687 210.955 34.0238 210.824 34.1342C210.698 34.2445 210.635 34.4047 210.635 34.6149C210.635 34.762 210.682 34.8854 210.776 34.9852C210.876 35.0798 210.997 35.1586 211.139 35.2216C211.286 35.2794 211.491 35.3477 211.754 35.4265C212.111 35.5316 212.402 35.6367 212.628 35.7417C212.854 35.8468 213.049 36.0044 213.211 36.2146C213.374 36.4247 213.456 36.7005 213.456 37.042C213.456 37.3362 213.38 37.6094 213.227 37.8615C213.075 38.1137 212.852 38.316 212.557 38.4683C212.263 38.6154 211.914 38.689 211.509 38.689ZM215.697 35.1744V37.2863C215.697 37.4334 215.731 37.5411 215.799 37.6094C215.873 37.6724 215.993 37.7039 216.162 37.7039H216.674V38.6338H215.98C215.05 38.6338 214.586 38.182 214.586 37.2784V35.1744H214.065V34.2681H214.586V33.1885H215.697V34.2681H216.674V35.1744H215.697ZM217.184 36.4352C217.184 35.9939 217.27 35.6025 217.444 35.261C217.622 34.9196 217.861 34.6569 218.161 34.473C218.465 34.2892 218.804 34.1972 219.177 34.1972C219.503 34.1972 219.787 34.2629 220.028 34.3942C220.275 34.5256 220.472 34.691 220.619 34.8907V34.2681H221.731V38.6338H220.619V37.9955C220.478 38.2004 220.281 38.3711 220.028 38.5077C219.781 38.639 219.495 38.7047 219.169 38.7047C218.802 38.7047 218.465 38.6101 218.161 38.421C217.861 38.2319 217.622 37.9666 217.444 37.6251C217.27 37.2784 217.184 36.8817 217.184 36.4352ZM220.619 36.451C220.619 36.183 220.567 35.9545 220.462 35.7654C220.357 35.571 220.215 35.4239 220.036 35.3241C219.858 35.219 219.666 35.1665 219.461 35.1665C219.256 35.1665 219.067 35.2164 218.894 35.3162C218.72 35.416 218.578 35.5631 218.468 35.7575C218.363 35.9466 218.31 36.1725 218.31 36.4352C218.31 36.6979 218.363 36.929 218.468 37.1287C218.578 37.323 218.72 37.4728 218.894 37.5778C219.072 37.6829 219.261 37.7354 219.461 37.7354C219.666 37.7354 219.858 37.6855 220.036 37.5857C220.215 37.4806 220.357 37.3335 220.462 37.1444C220.567 36.95 220.619 36.7189 220.619 36.451ZM224.092 35.1744V37.2863C224.092 37.4334 224.127 37.5411 224.195 37.6094C224.268 37.6724 224.389 37.7039 224.557 37.7039H225.07V38.6338H224.376C223.446 38.6338 222.981 38.182 222.981 37.2784V35.1744H222.461V34.2681H222.981V33.1885H224.092V34.2681H225.07V35.1744H224.092ZM229.985 34.2681V38.6338H228.873V38.0822C228.732 38.2713 228.545 38.421 228.314 38.5313C228.088 38.6364 227.841 38.689 227.573 38.689C227.232 38.689 226.93 38.618 226.667 38.4762C226.404 38.3291 226.197 38.1163 226.044 37.8379C225.897 37.5542 225.824 37.218 225.824 36.8292V34.2681H226.927V36.6716C226.927 37.0183 227.014 37.2863 227.187 37.4754C227.36 37.6593 227.597 37.7512 227.896 37.7512C228.201 37.7512 228.44 37.6593 228.613 37.4754C228.787 37.2863 228.873 37.0183 228.873 36.6716V34.2681H229.985ZM232.744 38.7047C232.386 38.7047 232.066 38.6417 231.782 38.5156C231.499 38.3842 231.273 38.2083 231.105 37.9876C230.942 37.767 230.852 37.5227 230.837 37.2547H231.948C231.969 37.4229 232.05 37.5621 232.192 37.6724C232.339 37.7827 232.52 37.8379 232.736 37.8379C232.946 37.8379 233.109 37.7959 233.224 37.7118C233.345 37.6277 233.406 37.52 233.406 37.3887C233.406 37.2469 233.332 37.1418 233.185 37.0735C233.043 37 232.815 36.9212 232.499 36.8371C232.174 36.7583 231.906 36.6769 231.696 36.5928C231.491 36.5088 231.312 36.38 231.16 36.2067C231.013 36.0333 230.939 35.7995 230.939 35.5053C230.939 35.2637 231.007 35.043 231.144 34.8434C231.286 34.6438 231.485 34.4862 231.743 34.3706C232.006 34.255 232.313 34.1972 232.665 34.1972C233.185 34.1972 233.6 34.3286 233.91 34.5912C234.22 34.8486 234.391 35.198 234.422 35.6393H233.366C233.35 35.4659 233.277 35.3293 233.146 35.2295C233.019 35.1245 232.849 35.0719 232.633 35.0719C232.434 35.0719 232.279 35.1087 232.168 35.1822C232.063 35.2558 232.011 35.3582 232.011 35.4896C232.011 35.6367 232.084 35.7496 232.231 35.8284C232.379 35.902 232.607 35.9781 232.917 36.057C233.232 36.1358 233.492 36.2172 233.697 36.3012C233.902 36.3853 234.078 36.5166 234.225 36.6953C234.377 36.8686 234.456 37.0998 234.462 37.3887C234.462 37.6409 234.391 37.8668 234.249 38.0664C234.112 38.266 233.913 38.4236 233.65 38.5392C233.392 38.6495 233.09 38.7047 232.744 38.7047Z" fill="black"/>
<path d="M212.069 89.7731H210.552L210.273 90.5466H209.794L211.051 87.088H211.575L212.828 90.5466H212.349L212.069 89.7731ZM211.94 89.4037L211.311 87.647L210.682 89.4037H211.94ZM214.394 90.1274L215.243 87.8117H215.727L214.654 90.5466H214.125L213.052 87.8117H213.541L214.394 90.1274ZM218.669 89.0743C218.669 89.1608 218.664 89.2523 218.654 89.3488H216.468C216.485 89.6183 216.576 89.8296 216.743 89.9827C216.912 90.1324 217.117 90.2073 217.357 90.2073C217.553 90.2073 217.716 90.1623 217.846 90.0725C217.979 89.9793 218.072 89.8562 218.125 89.7032H218.614C218.541 89.966 218.395 90.1806 218.175 90.347C217.955 90.51 217.683 90.5915 217.357 90.5915C217.097 90.5915 216.864 90.5333 216.658 90.4169C216.455 90.3004 216.295 90.1357 216.179 89.9228C216.062 89.7065 216.004 89.457 216.004 89.1742C216.004 88.8913 216.061 88.6435 216.174 88.4305C216.287 88.2176 216.445 88.0545 216.648 87.9414C216.854 87.825 217.09 87.7667 217.357 87.7667C217.616 87.7667 217.846 87.8233 218.045 87.9364C218.245 88.0496 218.398 88.2059 218.504 88.4056C218.614 88.6019 218.669 88.8248 218.669 89.0743ZM218.2 88.9795C218.2 88.8065 218.162 88.6584 218.085 88.5353C218.009 88.4089 217.904 88.3141 217.771 88.2509C217.641 88.1843 217.496 88.151 217.337 88.151C217.107 88.151 216.911 88.2242 216.748 88.3706C216.588 88.517 216.496 88.72 216.473 88.9795H218.2ZM219.723 88.2558C219.803 88.0995 219.916 87.978 220.062 87.8915C220.212 87.805 220.393 87.7618 220.606 87.7618V88.2309H220.486C219.977 88.2309 219.723 88.507 219.723 89.0594V90.5466H219.269V87.8117H219.723V88.2558ZM220.961 89.1692C220.961 88.8897 221.017 88.6451 221.13 88.4355C221.244 88.2226 221.398 88.0579 221.595 87.9414C221.794 87.825 222.015 87.7667 222.258 87.7667C222.498 87.7667 222.706 87.8183 222.882 87.9215C223.059 88.0246 223.19 88.1544 223.276 88.3107V87.8117H223.736V90.5466H223.276V90.0376C223.187 90.1973 223.052 90.3304 222.872 90.4368C222.696 90.54 222.49 90.5915 222.253 90.5915C222.01 90.5915 221.791 90.5317 221.595 90.4119C221.398 90.2921 221.244 90.1241 221.13 89.9078C221.017 89.6915 220.961 89.4453 220.961 89.1692ZM223.276 89.1742C223.276 88.9679 223.235 88.7882 223.152 88.6351C223.069 88.4821 222.955 88.3656 222.812 88.2858C222.673 88.2026 222.518 88.161 222.348 88.161C222.179 88.161 222.024 88.2009 221.884 88.2808C221.744 88.3607 221.633 88.4771 221.55 88.6302C221.466 88.7832 221.425 88.9629 221.425 89.1692C221.425 89.3788 221.466 89.5618 221.55 89.7182C221.633 89.8712 221.744 89.9893 221.884 90.0725C222.024 90.1524 222.179 90.1923 222.348 90.1923C222.518 90.1923 222.673 90.1524 222.812 90.0725C222.955 89.9893 223.069 89.8712 223.152 89.7182C223.235 89.5618 223.276 89.3804 223.276 89.1742ZM225.631 87.7667C225.867 87.7667 226.074 87.8183 226.25 87.9215C226.43 88.0246 226.563 88.1544 226.649 88.3107V87.8117H227.108V90.6065C227.108 90.8561 227.055 91.0773 226.949 91.2703C226.842 91.4666 226.689 91.6197 226.489 91.7295C226.293 91.8393 226.064 91.8942 225.801 91.8942C225.441 91.8942 225.142 91.8093 224.902 91.6396C224.663 91.4699 224.521 91.2387 224.478 90.9459H224.927C224.977 91.1123 225.08 91.2453 225.237 91.3452C225.393 91.4483 225.581 91.4999 225.801 91.4999C226.05 91.4999 226.253 91.4217 226.41 91.2653C226.569 91.1089 226.649 90.8893 226.649 90.6065V90.0326C226.559 90.1923 226.426 90.3254 226.25 90.4318C226.074 90.5383 225.867 90.5915 225.631 90.5915C225.388 90.5915 225.167 90.5317 224.967 90.4119C224.771 90.2921 224.616 90.1241 224.503 89.9078C224.39 89.6915 224.333 89.4453 224.333 89.1692C224.333 88.8897 224.39 88.6451 224.503 88.4355C224.616 88.2226 224.771 88.0579 224.967 87.9414C225.167 87.825 225.388 87.7667 225.631 87.7667ZM226.649 89.1742C226.649 88.9679 226.608 88.7882 226.524 88.6351C226.441 88.4821 226.328 88.3656 226.185 88.2858C226.045 88.2026 225.891 88.161 225.721 88.161C225.551 88.161 225.397 88.2009 225.257 88.2808C225.117 88.3607 225.006 88.4771 224.922 88.6302C224.839 88.7832 224.798 88.9629 224.798 89.1692C224.798 89.3788 224.839 89.5618 224.922 89.7182C225.006 89.8712 225.117 89.9893 225.257 90.0725C225.397 90.1524 225.551 90.1923 225.721 90.1923C225.891 90.1923 226.045 90.1524 226.185 90.0725C226.328 89.9893 226.441 89.8712 226.524 89.7182C226.608 89.5618 226.649 89.3804 226.649 89.1742ZM230.371 89.0743C230.371 89.1608 230.366 89.2523 230.356 89.3488H228.17C228.187 89.6183 228.278 89.8296 228.445 89.9827C228.614 90.1324 228.819 90.2073 229.059 90.2073C229.255 90.2073 229.418 90.1623 229.548 90.0725C229.681 89.9793 229.774 89.8562 229.827 89.7032H230.316C230.243 89.966 230.097 90.1806 229.877 90.347C229.658 90.51 229.385 90.5915 229.059 90.5915C228.799 90.5915 228.566 90.5333 228.36 90.4169C228.157 90.3004 227.997 90.1357 227.881 89.9228C227.764 89.7065 227.706 89.457 227.706 89.1742C227.706 88.8913 227.763 88.6435 227.876 88.4305C227.989 88.2176 228.147 88.0545 228.35 87.9414C228.556 87.825 228.792 87.7667 229.059 87.7667C229.318 87.7667 229.548 87.8233 229.747 87.9364C229.947 88.0496 230.1 88.2059 230.207 88.4056C230.316 88.6019 230.371 88.8248 230.371 89.0743ZM229.902 88.9795C229.902 88.8065 229.864 88.6584 229.787 88.5353C229.711 88.4089 229.606 88.3141 229.473 88.2509C229.343 88.1843 229.198 88.151 229.039 88.151C228.809 88.151 228.613 88.2242 228.45 88.3706C228.29 88.517 228.199 88.72 228.175 88.9795H229.902Z" fill="black"/>
<path d="M246.047 88.3997C245.111 87.9314 244.642 87.1929 244.642 86.1842C244.642 85.6979 244.764 85.2521 245.007 84.8468C245.25 84.4416 245.615 84.1219 246.101 83.8877C246.588 83.6445 247.182 83.523 247.885 83.523C248.578 83.523 249.168 83.6445 249.654 83.8877C250.15 84.1219 250.519 84.4416 250.762 84.8468C251.005 85.2521 251.127 85.6979 251.127 86.1842C251.127 86.6886 250.996 87.1344 250.735 87.5216C250.483 87.8999 250.145 88.1926 249.722 88.3997C250.235 88.5888 250.64 88.8995 250.938 89.3318C251.235 89.7551 251.383 90.2549 251.383 90.8313C251.383 91.4167 251.235 91.9346 250.938 92.3849C250.64 92.8352 250.226 93.1819 249.695 93.4251C249.163 93.6682 248.56 93.7898 247.885 93.7898C247.209 93.7898 246.606 93.6682 246.074 93.4251C245.552 93.1819 245.142 92.8352 244.845 92.3849C244.548 91.9346 244.399 91.4167 244.399 90.8313C244.399 90.2459 244.548 89.7416 244.845 89.3183C245.142 88.895 245.543 88.5888 246.047 88.3997ZM249.654 86.3734C249.654 85.869 249.497 85.4818 249.181 85.2116C248.866 84.9414 248.434 84.8063 247.885 84.8063C247.344 84.8063 246.916 84.9414 246.601 85.2116C246.286 85.4818 246.128 85.8735 246.128 86.3869C246.128 86.8372 246.291 87.2064 246.615 87.4946C246.948 87.7738 247.371 87.9134 247.885 87.9134C248.398 87.9134 248.821 87.7693 249.154 87.4811C249.488 87.1929 249.654 86.8237 249.654 86.3734ZM247.885 89.0752C247.29 89.0752 246.804 89.2238 246.426 89.521C246.056 89.8091 245.872 90.2279 245.872 90.7773C245.872 91.2906 246.052 91.7094 246.412 92.0336C246.772 92.3488 247.263 92.5064 247.885 92.5064C248.497 92.5064 248.979 92.3443 249.33 92.0201C249.69 91.6959 249.87 91.2816 249.87 90.7773C249.87 90.2369 249.686 89.8182 249.317 89.521C248.956 89.2238 248.479 89.0752 247.885 89.0752ZM253 88.4943C253 86.9362 253.262 85.7204 253.784 84.8468C254.315 83.9643 255.225 83.523 256.513 83.523C257.801 83.523 258.706 83.9643 259.228 84.8468C259.759 85.7204 260.025 86.9362 260.025 88.4943C260.025 90.0703 259.759 91.3041 259.228 92.1957C258.706 93.0783 257.801 93.5196 256.513 93.5196C255.225 93.5196 254.315 93.0783 253.784 92.1957C253.262 91.3041 253 90.0703 253 88.4943ZM258.512 88.4943C258.512 87.7648 258.462 87.1479 258.363 86.6435C258.273 86.1392 258.084 85.7294 257.796 85.4142C257.508 85.09 257.08 84.9279 256.513 84.9279C255.945 84.9279 255.518 85.09 255.229 85.4142C254.941 85.7294 254.748 86.1392 254.648 86.6435C254.558 87.1479 254.513 87.7648 254.513 88.4943C254.513 89.2508 254.558 89.8857 254.648 90.399C254.739 90.9124 254.928 91.3267 255.216 91.6419C255.513 91.9571 255.945 92.1147 256.513 92.1147C257.08 92.1147 257.508 91.9571 257.796 91.6419C258.093 91.3267 258.287 90.9124 258.377 90.399C258.467 89.8857 258.512 89.2508 258.512 88.4943ZM261.411 86.0762C261.411 85.4187 261.601 84.9054 261.979 84.5361C262.366 84.1579 262.861 83.9688 263.465 83.9688C264.068 83.9688 264.559 84.1579 264.937 84.5361C265.324 84.9054 265.518 85.4187 265.518 86.0762C265.518 86.7336 265.324 87.2514 264.937 87.6297C264.559 88.0079 264.068 88.1971 263.465 88.1971C262.861 88.1971 262.366 88.0079 261.979 87.6297C261.601 87.2514 261.411 86.7336 261.411 86.0762ZM269.652 84.1444L264.262 93.5466H262.749L268.139 84.1444H269.652ZM263.465 84.9009C262.897 84.9009 262.614 85.2926 262.614 86.0762C262.614 86.8687 262.897 87.265 263.465 87.265C263.735 87.265 263.942 87.1704 264.086 86.9813C264.239 86.7831 264.316 86.4814 264.316 86.0762C264.316 85.2926 264.032 84.9009 263.465 84.9009ZM266.91 91.6013C266.91 90.9439 267.099 90.4306 267.477 90.0613C267.864 89.6831 268.359 89.4939 268.963 89.4939C269.557 89.4939 270.044 89.6831 270.422 90.0613C270.809 90.4306 271.003 90.9439 271.003 91.6013C271.003 92.2588 270.809 92.7766 270.422 93.1549C270.044 93.5331 269.557 93.7222 268.963 93.7222C268.359 93.7222 267.864 93.5331 267.477 93.1549C267.099 92.7766 266.91 92.2588 266.91 91.6013ZM268.949 90.4261C268.382 90.4261 268.098 90.8178 268.098 91.6013C268.098 92.3849 268.382 92.7766 268.949 92.7766C269.517 92.7766 269.8 92.3849 269.8 91.6013C269.8 90.8178 269.517 90.4261 268.949 90.4261Z" fill="black"/>
<path d="M212.559 110.028C212.462 109.825 212.322 109.669 212.139 109.559C211.956 109.446 211.743 109.389 211.5 109.389C211.258 109.389 211.038 109.446 210.842 109.559C210.649 109.669 210.496 109.829 210.383 110.038C210.273 110.245 210.218 110.484 210.218 110.757C210.218 111.03 210.273 111.269 210.383 111.476C210.496 111.682 210.649 111.842 210.842 111.955C211.038 112.065 211.258 112.119 211.5 112.119C211.84 112.119 212.119 112.018 212.339 111.815C212.559 111.612 212.687 111.338 212.723 110.992H211.336V110.622H213.207V110.972C213.181 111.258 213.091 111.521 212.938 111.76C212.785 111.996 212.583 112.184 212.334 112.324C212.084 112.461 211.807 112.529 211.5 112.529C211.178 112.529 210.883 112.454 210.617 112.304C210.351 112.151 210.14 111.94 209.983 111.67C209.83 111.401 209.754 111.096 209.754 110.757C209.754 110.418 209.83 110.113 209.983 109.844C210.14 109.571 210.351 109.36 210.617 109.21C210.883 109.057 211.178 108.98 211.5 108.98C211.87 108.98 212.196 109.072 212.479 109.255C212.765 109.438 212.973 109.696 213.103 110.028H212.559ZM215.001 112.544C214.744 112.544 214.512 112.485 214.302 112.369C214.096 112.253 213.933 112.088 213.813 111.875C213.696 111.659 213.638 111.409 213.638 111.126C213.638 110.847 213.698 110.601 213.818 110.388C213.941 110.171 214.107 110.007 214.317 109.894C214.526 109.777 214.761 109.719 215.021 109.719C215.28 109.719 215.515 109.777 215.724 109.894C215.934 110.007 216.099 110.17 216.218 110.383C216.341 110.596 216.403 110.843 216.403 111.126C216.403 111.409 216.34 111.659 216.213 111.875C216.09 112.088 215.922 112.253 215.709 112.369C215.496 112.485 215.26 112.544 215.001 112.544ZM215.001 112.144C215.164 112.144 215.317 112.106 215.46 112.03C215.603 111.953 215.718 111.838 215.804 111.685C215.894 111.532 215.939 111.346 215.939 111.126C215.939 110.907 215.896 110.72 215.809 110.567C215.723 110.414 215.609 110.301 215.47 110.228C215.33 110.151 215.179 110.113 215.016 110.113C214.849 110.113 214.696 110.151 214.556 110.228C214.42 110.301 214.31 110.414 214.227 110.567C214.144 110.72 214.102 110.907 214.102 111.126C214.102 111.349 214.142 111.537 214.222 111.69C214.305 111.843 214.415 111.958 214.551 112.035C214.688 112.108 214.838 112.144 215.001 112.144ZM216.83 111.121C216.83 110.842 216.887 110.597 217 110.388C217.113 110.175 217.268 110.01 217.464 109.894C217.664 109.777 217.885 109.719 218.128 109.719C218.368 109.719 218.576 109.77 218.752 109.874C218.928 109.977 219.06 110.107 219.146 110.263V109.764H219.605V112.499H219.146V111.99C219.056 112.149 218.922 112.283 218.742 112.389C218.566 112.492 218.359 112.544 218.123 112.544C217.88 112.544 217.661 112.484 217.464 112.364C217.268 112.244 217.113 112.076 217 111.86C216.887 111.644 216.83 111.397 216.83 111.121ZM219.146 111.126C219.146 110.92 219.105 110.74 219.021 110.587C218.938 110.434 218.825 110.318 218.682 110.238C218.542 110.155 218.388 110.113 218.218 110.113C218.048 110.113 217.894 110.153 217.754 110.233C217.614 110.313 217.503 110.429 217.419 110.582C217.336 110.735 217.295 110.915 217.295 111.121C217.295 111.331 217.336 111.514 217.419 111.67C217.503 111.823 217.614 111.941 217.754 112.025C217.894 112.105 218.048 112.144 218.218 112.144C218.388 112.144 218.542 112.105 218.682 112.025C218.825 111.941 218.938 111.823 219.021 111.67C219.105 111.514 219.146 111.333 219.146 111.126ZM220.827 108.806V112.499H220.373V108.806H220.827Z" fill="black"/>
<path d="M246.783 112.824C246.873 113.274 247.066 113.617 247.363 113.851C247.661 114.085 248.061 114.202 248.566 114.202C249.205 114.202 249.673 113.95 249.971 113.445C250.268 112.941 250.416 112.081 250.416 110.865C250.2 111.171 249.894 111.41 249.498 111.581C249.111 111.743 248.687 111.824 248.228 111.824C247.643 111.824 247.111 111.707 246.634 111.473C246.157 111.23 245.778 110.874 245.499 110.406C245.229 109.929 245.094 109.352 245.094 108.677C245.094 107.686 245.382 106.898 245.958 106.313C246.544 105.718 247.345 105.421 248.363 105.421C249.588 105.421 250.457 105.831 250.97 106.65C251.493 107.461 251.754 108.708 251.754 110.392C251.754 111.554 251.655 112.504 251.457 113.243C251.268 113.981 250.934 114.54 250.457 114.918C249.98 115.296 249.318 115.485 248.471 115.485C247.508 115.485 246.765 115.233 246.242 114.729C245.72 114.224 245.427 113.59 245.364 112.824H246.783ZM248.498 110.527C249.039 110.527 249.462 110.361 249.768 110.028C250.083 109.685 250.241 109.235 250.241 108.677C250.241 108.055 250.074 107.574 249.741 107.231C249.417 106.88 248.971 106.704 248.404 106.704C247.836 106.704 247.386 106.885 247.053 107.245C246.728 107.596 246.566 108.06 246.566 108.636C246.566 109.186 246.724 109.64 247.039 110.001C247.363 110.352 247.85 110.527 248.498 110.527ZM253.439 110.446C253.439 108.888 253.7 107.673 254.223 106.799C254.754 105.916 255.664 105.475 256.952 105.475C258.239 105.475 259.145 105.916 259.667 106.799C260.198 107.673 260.464 108.888 260.464 110.446C260.464 112.022 260.198 113.256 259.667 114.148C259.145 115.03 258.239 115.472 256.952 115.472C255.664 115.472 254.754 115.03 254.223 114.148C253.7 113.256 253.439 112.022 253.439 110.446ZM258.951 110.446C258.951 109.717 258.901 109.1 258.802 108.596C258.712 108.091 258.523 107.682 258.235 107.366C257.947 107.042 257.519 106.88 256.952 106.88C256.384 106.88 255.956 107.042 255.668 107.366C255.38 107.682 255.186 108.091 255.087 108.596C254.997 109.1 254.952 109.717 254.952 110.446C254.952 111.203 254.997 111.838 255.087 112.351C255.177 112.865 255.367 113.279 255.655 113.594C255.952 113.909 256.384 114.067 256.952 114.067C257.519 114.067 257.947 113.909 258.235 113.594C258.532 113.279 258.726 112.865 258.816 112.351C258.906 111.838 258.951 111.203 258.951 110.446ZM261.85 108.028C261.85 107.371 262.039 106.858 262.418 106.488C262.805 106.11 263.3 105.921 263.904 105.921C264.507 105.921 264.998 106.11 265.376 106.488C265.763 106.858 265.957 107.371 265.957 108.028C265.957 108.686 265.763 109.204 265.376 109.582C264.998 109.96 264.507 110.149 263.904 110.149C263.3 110.149 262.805 109.96 262.418 109.582C262.039 109.204 261.85 108.686 261.85 108.028ZM270.091 106.097L264.701 115.499H263.188L268.578 106.097H270.091ZM263.904 106.853C263.336 106.853 263.053 107.245 263.053 108.028C263.053 108.821 263.336 109.217 263.904 109.217C264.174 109.217 264.381 109.123 264.525 108.933C264.678 108.735 264.755 108.434 264.755 108.028C264.755 107.245 264.471 106.853 263.904 106.853ZM267.348 113.553C267.348 112.896 267.538 112.383 267.916 112.013C268.303 111.635 268.798 111.446 269.402 111.446C269.996 111.446 270.483 111.635 270.861 112.013C271.248 112.383 271.442 112.896 271.442 113.553C271.442 114.211 271.248 114.729 270.861 115.107C270.483 115.485 269.996 115.674 269.402 115.674C268.798 115.674 268.303 115.485 267.916 115.107C267.538 114.729 267.348 114.211 267.348 113.553ZM269.388 112.378C268.821 112.378 268.537 112.77 268.537 113.553C268.537 114.337 268.821 114.729 269.388 114.729C269.956 114.729 270.239 114.337 270.239 113.553C270.239 112.77 269.956 112.378 269.388 112.378Z" fill="black"/>
<path d="M199.496 40.0764L199.496 132.951" stroke="#9F9F9F" stroke-width="0.562874"/>
<path d="M37.0252 52.8239C36.9153 52.714 36.7371 52.714 36.6272 52.8239L34.8361 54.615C34.7262 54.7249 34.7262 54.9031 34.8361 55.013C34.946 55.1229 35.1242 55.1229 35.2341 55.013L36.8262 53.421L38.4182 55.013C38.5281 55.1229 38.7063 55.1229 38.8162 55.013C38.9261 54.9031 38.9261 54.7249 38.8162 54.615L37.0252 52.8239ZM36.8262 132.951H36.5447V133.233H36.8262V132.951ZM182.247 133.15C182.357 133.04 182.357 132.862 182.247 132.752L180.456 130.961C180.346 130.851 180.168 130.851 180.058 130.961C179.948 131.071 179.948 131.249 180.058 131.359L181.65 132.951L180.058 134.543C179.948 134.653 179.948 134.831 180.058 134.941C180.168 135.051 180.346 135.051 180.456 134.941L182.247 133.15ZM36.5447 53.0229V132.951H37.1076V53.0229H36.5447ZM36.8262 133.233H182.048V132.67H36.8262V133.233Z" fill="#85B6A6"/>
</g>
<defs>
<filter id="filter0_dd_589_426" x="0.802396" y="0.112664" width="312.395" height="180.12" filterUnits="userSpaceOnUse" color-interpolation-filters="sRGB">
<feFlood flood-opacity="0" result="BackgroundImageFix"/>
<feColorMatrix in="SourceAlpha" type="matrix" values="0 0 0 0 0 0 0 0 0 0 0 0 0 0 0 0 0 0 127 0" result="hardAlpha"/>
<feOffset dy="2.2515"/>
<feGaussianBlur stdDeviation="5.62874"/>
<feComposite in2="hardAlpha" operator="out"/>
<feColorMatrix type="matrix" values="0 0 0 0 0.597582 0 0 0 0 0.597582 0 0 0 0 0.597582 0 0 0 0.25 0"/>
<feBlend mode="normal" in2="BackgroundImageFix" result="effect1_dropShadow_589_426"/>
<feColorMatrix in="SourceAlpha" type="matrix" values="0 0 0 0 0 0 0 0 0 0 0 0 0 0 0 0 0 0 127 0" result="hardAlpha"/>
<feOffset dy="14.6347"/>
<feGaussianBlur stdDeviation="7.5988"/>
<feComposite in2="hardAlpha" operator="out"/>
<feColorMatrix type="matrix" values="0 0 0 0 0 0 0 0 0 0 0 0 0 0 0 0 0 0 0.04 0"/>
<feBlend mode="normal" in2="effect1_dropShadow_589_426" result="effect2_dropShadow_589_426"/>
<feBlend mode="normal" in="SourceGraphic" in2="effect2_dropShadow_589_426" result="shape"/>
</filter>
<linearGradient id="paint0_linear_589_426" x1="112.301" y1="72.9143" x2="106.252" y2="130.218" gradientUnits="userSpaceOnUse">
<stop stop-color="#85B6A6"/>
<stop offset="1" stop-color="#8CBAAB" stop-opacity="0.32"/>
</linearGradient>
</defs>
</svg>
