<svg width="584" height="88" viewBox="0 0 584 88" fill="none" xmlns="http://www.w3.org/2000/svg">
<g style="mix-blend-mode:multiply" opacity="0.3">
<path d="M583.435 87.685L576.895 82.0605L573.456 79.0958L553.076 61.5278L550.975 59.732L535.999 46.8398L530.731 42.2996L518.736 31.9654L516.669 30.1866L499.305 15.2275L496.018 12.3984L485.87 3.65674H106.032L100.289 8.60353L92.5639 15.2784L75.3178 30.1866L73.251 31.9654L61.2905 42.2826L56.0218 46.8398L39.6227 60.9857L38.979 61.5447L21.2924 76.8257L15.2274 82.0605L8.70508 87.685H583.435Z" fill="#C1B5AA"/>
</g>
<path d="M574.964 84.2968H0.234375L97.5615 0.268555H477.4L574.964 84.2968Z" fill="white"/>
<path d="M95.1906 10.6535C99.5943 10.5473 103.988 11.1187 108.218 12.3477C117.686 14.9227 127.669 14.9227 137.137 12.3477C145.66 10.0207 154.652 10.0207 163.176 12.3477C172.637 14.9229 182.615 14.9229 192.077 12.3477C200.606 10.0209 209.603 10.0209 218.133 12.3477C227.6 14.9227 237.584 14.9227 247.051 12.3477C255.581 10.0209 264.577 10.0209 273.107 12.3477C282.569 14.9229 292.547 14.9229 302.008 12.3477C310.538 10.0209 319.535 10.0209 328.064 12.3477C337.532 14.9227 347.515 14.9227 356.983 12.3477C365.512 10.0209 374.509 10.0209 383.038 12.3477C392.506 14.9227 402.489 14.9227 411.957 12.3477C420.486 10.0209 429.483 10.0209 438.012 12.3477C447.474 14.9229 457.452 14.9229 466.914 12.3477C471.144 11.1187 475.538 10.5473 479.942 10.6535C483.603 10.5769 487.259 10.9755 490.818 11.8394L483.127 5.21538C482.144 5.21538 481.111 5.1307 479.942 5.1307C475.055 5.03825 470.182 5.68948 465.491 7.06201C456.961 9.38875 447.965 9.38875 439.435 7.06201C429.974 4.48674 419.995 4.48674 410.534 7.06201C401.999 9.38854 392.996 9.38854 384.461 7.06201C374.999 4.48674 365.021 4.48674 355.56 7.06201C347.024 9.38854 338.022 9.38854 329.487 7.06201C320.025 4.48674 310.047 4.48674 300.585 7.06201C292.056 9.38875 283.059 9.38875 274.53 7.06201C265.062 4.48695 255.079 4.48695 245.611 7.06201C237.082 9.38875 228.085 9.38875 219.556 7.06201C210.094 4.48674 200.116 4.48674 190.654 7.06201C182.125 9.38875 173.128 9.38875 164.599 7.06201C155.137 4.48674 145.159 4.48674 135.697 7.06201C127.168 9.38875 118.171 9.38875 109.641 7.06201C104.95 5.68948 100.078 5.03825 95.1906 5.1307C93.9708 5.1307 92.8696 5.13067 91.8023 5.21538L84.0771 11.8902C87.7117 10.9941 91.448 10.5783 95.1906 10.6535Z" fill="#82B2C2"/>
<path d="M67.7119 28.6448C72.4382 28.7339 77.1506 28.1056 81.6884 26.7812C90.5276 24.3645 99.8534 24.3645 108.693 26.7812C117.85 29.2655 127.505 29.2655 136.663 26.7812C145.496 24.3643 154.816 24.3643 163.65 26.7812C172.802 29.2657 182.451 29.2657 191.603 26.7812C200.442 24.3645 209.768 24.3645 218.607 26.7812C227.765 29.2655 237.419 29.2655 246.577 26.7812C255.416 24.3645 264.742 24.3645 273.581 26.7812C282.733 29.2657 292.382 29.2657 301.534 26.7812C310.373 24.3645 319.699 24.3645 328.538 26.7812C337.696 29.2655 347.35 29.2655 356.508 26.7812C365.347 24.3645 374.673 24.3645 383.512 26.7812C392.67 29.2655 402.324 29.2655 411.482 26.7812C420.321 24.3645 429.647 24.3645 438.487 26.7812C447.639 29.2657 457.287 29.2657 466.439 26.7812C475.284 24.3639 484.616 24.3639 493.461 26.7812C497.998 28.1056 502.711 28.7339 507.437 28.6448C508.454 28.6448 509.385 28.6448 510.266 28.6448L508.199 26.8659H507.437C502.854 26.9679 498.283 26.3621 493.884 25.0702C484.729 22.5628 475.069 22.5628 465.914 25.0702C457.072 27.4647 447.752 27.4647 438.91 25.0702C429.761 22.5626 420.106 22.5626 410.957 25.0702C402.082 27.4798 392.726 27.4798 383.851 25.0702C374.702 22.5626 365.047 22.5626 355.898 25.0702C347.05 27.4645 337.725 27.4645 328.877 25.0702C319.728 22.5626 310.073 22.5626 300.924 25.0702C292.082 27.4647 282.762 27.4647 273.92 25.0702C264.771 22.5626 255.116 22.5626 245.967 25.0702C237.119 27.4645 227.794 27.4645 218.946 25.0702C209.797 22.5626 200.142 22.5626 190.993 25.0702C182.151 27.4647 172.831 27.4647 163.989 25.0702C154.84 22.5626 145.185 22.5626 136.036 25.0702C127.194 27.4647 117.874 27.4647 109.031 25.0702C99.8825 22.5626 90.2274 22.5626 81.0785 25.0702C76.6804 26.3635 72.1088 26.9692 67.5256 26.8659H66.6616L64.5947 28.6448C65.6959 28.6109 66.7293 28.6448 67.7119 28.6448Z" fill="#82B2C2"/>
<path d="M67.7108 46.6364C72.5978 46.7288 77.4704 46.0776 82.1616 44.7051C90.6909 42.3784 99.6878 42.3784 108.217 44.7051C117.685 47.2802 127.668 47.2802 137.136 44.7051C145.659 42.3782 154.651 42.3782 163.174 44.7051C172.636 47.2804 182.614 47.2804 192.076 44.7051C200.605 42.3784 209.602 42.3784 218.132 44.7051C227.599 47.2802 237.583 47.2802 247.05 44.7051C255.579 42.3784 264.576 42.3784 273.106 44.7051C282.567 47.2804 292.546 47.2804 302.007 44.7051C310.537 42.3784 319.533 42.3784 328.063 44.7051C337.53 47.2802 347.514 47.2802 356.981 44.7051C365.511 42.3784 374.508 42.3784 383.037 44.7051C392.504 47.2802 402.488 47.2802 411.956 44.7051C420.485 42.3784 429.482 42.3784 438.011 44.7051C447.473 47.2804 457.451 47.2804 466.913 44.7051C475.448 42.3786 484.45 42.3786 492.985 44.7051C502.447 47.2804 512.425 47.2804 521.887 44.7051C523.745 44.1718 525.635 43.7531 527.545 43.4514L522.26 38.9112L520.464 39.3856C511.934 41.7123 502.938 41.7123 494.408 39.3856C484.941 36.8105 474.957 36.8105 465.49 39.3856C456.96 41.7123 447.963 41.7123 439.434 39.3856C429.972 36.8103 419.994 36.8103 410.532 39.3856C401.997 41.7121 392.995 41.7121 384.46 39.3856C374.998 36.8103 365.02 36.8103 355.558 39.3856C347.023 41.7121 338.021 41.7121 329.486 39.3856C320.024 36.8103 310.046 36.8103 300.584 39.3856C292.055 41.7123 283.058 41.7123 274.529 39.3856C265.061 36.8105 255.078 36.8105 245.61 39.3856C237.081 41.7123 228.084 41.7123 219.555 39.3856C210.093 36.8103 200.115 36.8103 190.653 39.3856C182.124 41.7123 173.127 41.7123 164.597 39.3856C155.136 36.8103 145.158 36.8103 135.696 39.3856C127.166 41.7123 118.17 41.7123 109.64 39.3856C100.178 36.8103 90.2003 36.8103 80.7385 39.3856C72.2092 41.7123 63.2124 41.7123 54.6831 39.3856C54.0732 39.2161 53.4633 39.0467 52.8195 38.8943L47.5508 43.4514C49.4778 43.7516 51.3845 44.1703 53.2599 44.7051C57.9514 46.0764 62.8239 46.7275 67.7108 46.6364Z" fill="#82B2C2"/>
<path d="M53.7342 59.0884C62.8862 61.5729 72.5351 61.5729 81.6871 59.0884C90.5263 56.6717 99.8522 56.6717 108.691 59.0884C117.849 61.5727 127.503 61.5727 136.661 59.0884C145.495 56.6714 154.815 56.6714 163.649 59.0884C172.801 61.5729 182.449 61.5729 191.602 59.0884C200.441 56.6717 209.767 56.6717 218.606 59.0884C227.764 61.5727 237.418 61.5727 246.576 59.0884C255.415 56.6717 264.741 56.6717 273.58 59.0884C282.732 61.5729 292.381 61.5729 301.533 59.0884C310.372 56.6717 319.698 56.6717 328.537 59.0884C337.695 61.5727 347.349 61.5727 356.507 59.0884C365.346 56.6717 374.672 56.6717 383.511 59.0884C392.669 61.5727 402.323 61.5727 411.481 59.0884C420.32 56.6717 429.646 56.6717 438.485 59.0884C447.637 61.5729 457.286 61.5729 466.438 59.0884C475.283 56.6711 484.615 56.6711 493.459 59.0884C502.611 61.5729 512.26 61.5729 521.412 59.0884C525.81 57.7896 530.381 57.1782 534.965 57.2757C538.211 57.2302 541.453 57.5197 544.639 58.1397L541.962 55.8526C539.641 55.5633 537.304 55.4275 534.965 55.4461C530.234 55.3586 525.516 55.9868 520.972 57.3096C512.133 59.7263 502.807 59.7263 493.968 57.3096C484.81 54.8253 475.156 54.8253 465.998 57.3096C457.159 59.7263 447.833 59.7263 438.994 57.3096C429.841 54.8251 420.193 54.8251 411.041 57.3096C402.169 59.7424 392.806 59.7424 383.935 57.3096C374.783 54.8251 365.134 54.8251 355.982 57.3096C347.137 59.7269 337.805 59.7269 328.961 57.3096C319.809 54.8251 310.16 54.8251 301.008 57.3096C292.168 59.7263 282.843 59.7263 274.003 57.3096C264.851 54.8251 255.202 54.8251 246.05 57.3096C237.206 59.7269 227.874 59.7269 219.029 57.3096C209.877 54.8251 200.228 54.8251 191.076 57.3096C182.237 59.7263 172.911 59.7263 164.072 57.3096C154.92 54.8251 145.271 54.8251 136.119 57.3096C127.28 59.7263 117.954 59.7263 109.115 57.3096C99.9629 54.8251 90.314 54.8251 81.162 57.3096C72.3228 59.7263 62.9969 59.7263 54.1577 57.3096C49.6197 55.9865 44.9074 55.3582 40.1813 55.4461C37.8257 55.4265 35.4715 55.5624 33.1338 55.8526L30.457 58.1566C33.658 57.5188 36.9178 57.2235 40.1813 57.2757C44.7653 57.1776 49.337 57.7891 53.7342 59.0884Z" fill="#F2E8DD"/>
<path d="M562.359 73.4376C557.972 73.5418 553.595 72.9704 549.382 71.7435C539.914 69.1684 529.931 69.1684 520.463 71.7435C511.934 74.0702 502.937 74.0702 494.408 71.7435C484.94 69.1684 474.957 69.1684 465.489 71.7435C456.96 74.0702 447.963 74.0702 439.434 71.7435C429.972 69.1682 419.994 69.1682 410.532 71.7435C401.997 74.07 392.994 74.07 384.459 71.7435C374.998 69.1682 365.02 69.1682 355.558 71.7435C347.023 74.07 338.02 74.07 329.485 71.7435C320.023 69.1682 310.045 69.1682 300.584 71.7435C292.054 74.0702 283.057 74.0702 274.528 71.7435C265.061 69.1684 255.077 69.1684 245.609 71.7435C237.08 74.0702 228.083 74.0702 219.554 71.7435C210.092 69.1682 200.114 69.1682 190.652 71.7435C182.123 74.0702 173.126 74.0702 164.597 71.7435C155.135 69.1682 145.157 69.1682 135.695 71.7435C127.166 74.0702 118.169 74.0702 109.64 71.7435C100.178 69.1682 90.1997 69.1682 80.7379 71.7435C72.2086 74.0702 63.2118 74.0702 54.6825 71.7435C45.2207 69.1682 35.2425 69.1682 25.7808 71.7435C21.5735 72.9708 17.2022 73.5423 12.8208 73.4376L6.75586 78.6724C8.74886 78.8685 10.7504 78.9646 12.7531 78.9604C17.64 79.0515 22.5124 78.4004 27.2039 77.0291C35.7332 74.7024 44.73 74.7024 53.2594 77.0291C62.7211 79.6044 72.6992 79.6044 82.161 77.0291C90.6903 74.7024 99.6872 74.7024 108.217 77.0291C117.684 79.6042 127.668 79.6042 137.135 77.0291C145.659 74.7021 154.65 74.7021 163.174 77.0291C172.635 79.6044 182.614 79.6044 192.075 77.0291C200.605 74.7024 209.602 74.7024 218.131 77.0291C227.598 79.6042 237.582 79.6042 247.049 77.0291C255.579 74.7024 264.576 74.7024 273.105 77.0291C282.567 79.6044 292.545 79.6044 302.007 77.0291C310.536 74.7024 319.533 74.7024 328.062 77.0291C337.53 79.6042 347.513 79.6042 356.981 77.0291C365.51 74.7024 374.507 74.7024 383.036 77.0291C392.504 79.6042 402.487 79.6042 411.955 77.0291C420.484 74.7024 429.481 74.7024 438.01 77.0291C447.472 79.6044 457.45 79.6044 466.912 77.0291C475.447 74.7026 484.449 74.7026 492.985 77.0291C502.446 79.6044 512.424 79.6044 521.886 77.0291C530.421 74.7026 539.424 74.7026 547.959 77.0291C552.656 78.4 557.534 79.0511 562.426 78.9604C564.429 78.9646 566.431 78.8685 568.424 78.6724L562.359 73.4376Z" fill="#F2E8DD"/>
</svg>
